<svg preserveAspectRatio="none" width="100%" height="100%" overflow="visible" style="display: block;" viewBox="0 0 606.42 134.298" fill="none" xmlns="http://www.w3.org/2000/svg">
<g id="Union">
<path d="M308.685 113.918C308.685 116.753 309.687 118.763 311.073 120.767C312.693 122.772 313.928 123.37 315.831 124.02C317.733 124.669 319.985 124.994 322.584 124.994C326.009 124.994 328.959 124.315 331.432 122.956C333.906 121.538 335.904 119.825 337.426 117.817C338.794 116.084 339.784 114.417 340.397 112.816V89.353H351.807V133.036H340.397V116.694C340.242 117.278 340.045 117.948 339.804 118.703C339.297 120.239 338.504 121.893 337.426 123.665C336.411 125.437 335.079 127.151 333.43 128.805C331.781 130.399 329.752 131.728 327.342 132.791C324.932 133.795 322.077 134.298 318.78 134.298C316.179 134.298 313.61 134.002 311.073 133.411C308.6 132.821 306.348 131.846 304.319 130.488C302.29 129.07 300.672 127.18 299.467 124.817C298.262 122.454 297.66 119.471 297.66 115.868V89.1973H308.685V113.918Z" fill="var(--fill-0, #000AFF)"/>
<path d="M414.92 113.918C414.92 116.753 415.922 118.763 417.309 120.767C418.928 122.771 420.163 123.37 422.065 124.02C423.968 124.669 426.22 124.994 428.82 124.994C432.245 124.994 435.194 124.315 437.668 122.956C440.141 121.538 442.139 119.825 443.661 117.817C445.028 116.084 446.019 114.418 446.632 112.817V89.353H458.042V133.036H446.632V116.697C446.477 117.28 446.28 117.949 446.04 118.703C445.532 120.239 444.739 121.893 443.661 123.665C442.646 125.437 441.314 127.151 439.665 128.805C438.016 130.399 435.987 131.728 433.577 132.791C431.167 133.795 428.313 134.298 425.015 134.298C422.415 134.298 419.846 134.002 417.309 133.411C414.836 132.821 412.584 131.846 410.554 130.488C408.525 129.07 406.908 127.18 405.703 124.817C404.498 122.454 403.895 119.47 403.895 115.868V89.1973H414.92V113.918Z" fill="var(--fill-0, #000AFF)"/>
<path fill-rule="evenodd" clip-rule="evenodd" d="M530.256 88.3856C535.991 88.3856 540.76 89.2944 544.564 91.1109C548.367 92.9274 551.176 95.681 552.99 99.3723C554.862 103.005 555.652 107.664 555.359 113.348H513.756C514.048 115.574 514.867 117.596 516.213 119.413C517.617 121.229 519.49 122.664 521.83 123.719C524.229 124.774 527.068 125.301 530.344 125.301C533.972 125.301 536.986 124.686 539.385 123.455C541.842 122.166 543.423 120.526 544.125 118.533H555.184C554.716 121.522 553.458 124.188 551.41 126.532C549.421 128.876 546.699 130.722 543.247 132.069C539.794 133.417 535.581 134.091 530.608 134.091C525.049 134.091 520.134 133.212 515.862 131.454C511.591 129.638 508.255 127.03 505.856 123.632C503.457 120.233 502.257 116.131 502.257 111.327C502.257 106.522 503.428 102.419 505.768 99.0208C508.109 95.5638 511.356 92.9273 515.511 91.1109C519.724 89.2945 524.639 88.3856 530.256 88.3856ZM529.73 97.0876C525.517 97.0876 522.094 98.0251 519.461 99.9001C516.828 101.717 515.131 103.973 514.37 106.668H544.037C543.744 103.738 542.34 101.423 539.823 99.7239C537.366 97.9662 534.002 97.0876 529.73 97.0876Z" fill="var(--fill-0, #000AFF)"/>
<path d="M585.53 88.3856C589.86 88.3856 593.459 89.0305 596.327 90.3196C599.193 91.5501 601.329 93.3081 602.733 95.5932C604.196 97.8198 604.928 100.398 604.928 103.328H594.834C594.366 101.16 593.429 99.6067 592.025 98.6692C590.621 97.6732 588.456 97.1748 585.53 97.1748C582.663 97.1748 580.498 97.6149 579.035 98.4939C577.572 99.3728 576.841 100.574 576.841 102.098C576.841 103.328 577.28 104.294 578.157 104.997C579.093 105.642 580.44 106.17 582.195 106.58C584.009 106.99 586.262 107.429 588.953 107.898C591.235 108.367 593.4 108.895 595.448 109.481C597.555 110.067 599.428 110.828 601.066 111.765C602.704 112.644 603.992 113.846 604.928 115.369C605.923 116.834 606.42 118.709 606.42 120.994C606.42 123.807 605.601 126.18 603.962 128.114C602.382 130.047 600.1 131.541 597.116 132.596C594.132 133.592 590.562 134.091 586.408 134.091C582.721 134.091 579.532 133.709 576.841 132.948C574.208 132.127 572.013 131.102 570.258 129.872C568.503 128.583 567.127 127.235 566.133 125.829C565.196 124.364 564.552 122.987 564.201 121.697C563.85 120.408 563.733 119.354 563.85 118.533H574.383C575.027 120.525 576.343 122.166 578.332 123.455C580.38 124.686 583.043 125.301 586.32 125.301C588.543 125.301 590.27 125.096 591.499 124.686C592.728 124.276 593.576 123.69 594.044 122.928C594.513 122.108 594.746 121.199 594.746 120.203C594.746 118.973 594.365 118.035 593.605 117.391C592.844 116.688 591.674 116.131 590.094 115.721C588.515 115.311 586.495 114.93 584.038 114.578C581.58 114.168 579.211 113.67 576.929 113.084C574.647 112.498 572.627 111.736 570.872 110.799C569.117 109.803 567.713 108.572 566.659 107.107C565.665 105.583 565.167 103.738 565.167 101.57C565.167 99.4604 565.665 97.5854 566.659 95.9448C567.713 94.3041 569.146 92.9273 570.96 91.814C572.833 90.7007 574.997 89.8509 577.455 89.2649C579.971 88.679 582.663 88.3856 585.53 88.3856Z" fill="var(--fill-0, #000AFF)"/>
<path d="M289.905 85.9246H248.199V101.218H284.01V110.359H248.199V133.036H236.525V76.1687H289.905V85.9246Z" fill="var(--fill-0, #000AFF)"/>
<path d="M383.445 89.353H394.679V98.2304H383.445V133.036H372.035V98.2304H360.8V89.353H372.035V77.3997H383.445V89.353Z" fill="var(--fill-0, #000AFF)"/>
<path d="M495.555 98.7573C492.278 98.7573 489.44 99.4023 487.041 100.691C484.642 101.922 482.71 103.445 481.247 105.262C480.205 106.556 479.387 107.821 478.79 109.055V133.036H467.38V89.353H478.79V102.625C479.2 101.218 479.814 99.7243 480.633 98.1423C481.453 96.5016 482.535 94.9487 483.881 93.4838C485.227 91.9603 486.865 90.7294 488.796 89.7918C490.727 88.8543 492.98 88.3856 495.555 88.3856V98.7573Z" fill="var(--fill-0, #000AFF)"/>
<path fill-rule="evenodd" clip-rule="evenodd" d="M163.763 16.6119C169.497 16.6119 174.267 17.5199 178.071 19.3363C181.874 21.1528 184.683 23.9072 186.497 27.5987C188.369 31.2315 189.159 35.8898 188.866 41.5734H147.262C147.555 43.8 148.374 45.8217 149.72 47.6382C151.124 49.4546 152.996 50.8904 155.337 51.9451C157.736 52.9998 160.574 53.5267 163.851 53.5267C167.479 53.5267 170.492 52.9121 172.891 51.6817C175.349 50.3926 176.93 48.7518 177.632 46.7597H188.691C188.222 49.7478 186.965 52.414 184.917 54.7577C182.927 57.1015 180.206 58.947 176.753 60.2947C173.301 61.6423 169.088 62.3169 164.115 62.3169C158.556 62.3169 153.641 61.4374 149.369 59.6797C145.098 57.8632 141.761 55.2556 139.362 51.857C136.963 48.4585 135.764 44.3568 135.764 39.5521C135.764 34.7472 136.935 30.6457 139.275 27.2471C141.616 23.79 144.863 21.1528 149.018 19.3363C153.231 17.5199 158.146 16.6119 163.763 16.6119ZM163.237 25.313C159.024 25.313 155.601 26.2506 152.968 28.1256C150.334 29.9421 148.637 32.1981 147.877 34.8935H177.544C177.251 31.9638 175.846 29.6495 173.33 27.9503C170.873 26.1925 167.508 25.3131 163.237 25.313Z" fill="var(--fill-0, #000AFF)"/>
<path fill-rule="evenodd" clip-rule="evenodd" d="M429 16.6119C434.734 16.6119 439.503 17.5199 443.306 19.3363C446.991 21.0961 449.742 23.7356 451.56 27.2551L451.905 27.9422C453.653 31.5237 454.386 36.0674 454.103 41.5734H412.498C412.791 43.7999 413.61 45.8217 414.956 47.6382C416.36 49.4546 418.233 50.8904 420.574 51.9451C422.973 52.9997 425.81 53.5267 429.087 53.5267C432.715 53.5267 435.729 52.9122 438.128 51.6817C440.586 50.3926 442.165 48.7518 442.868 46.7597H453.927C453.458 49.7479 452.201 52.414 450.153 54.7577C448.163 57.1014 445.442 58.947 441.99 60.2947C438.538 61.6424 434.324 62.3169 429.35 62.3169C423.792 62.3169 418.876 61.4375 414.605 59.6797C410.333 57.8632 406.998 55.2556 404.599 51.857C402.2 48.4585 401.001 44.3569 401.001 39.5521C401.001 34.7473 402.17 30.6456 404.511 27.2471C406.851 23.79 410.099 21.1528 414.253 19.3363C418.466 17.5199 423.382 16.6119 429 16.6119ZM428.473 25.313C424.26 25.313 420.837 26.2505 418.203 28.1256C415.57 29.9421 413.873 32.1981 413.112 34.8935H442.78C442.487 31.9639 441.083 29.6495 438.567 27.9503C436.109 26.1924 432.744 25.313 428.473 25.313Z" fill="var(--fill-0, #000AFF)"/>
<path fill-rule="evenodd" clip-rule="evenodd" d="M320.564 16.6119C325.596 16.6119 329.634 17.6371 332.677 19.6879C335.778 21.6802 338.031 24.405 339.436 27.8621C339.807 28.7761 340.127 29.7194 340.401 30.6907V17.5785H351.811V61.2622H341.191C341.191 61.2622 341.103 60.7049 340.928 59.5915C340.811 58.4197 340.694 56.955 340.577 55.1974C340.46 53.4395 340.401 51.7103 340.401 50.011V47.0783C340.372 47.1769 340.343 47.276 340.313 47.3747C339.494 50.0115 338.236 52.4725 336.539 54.7577C334.842 56.9842 332.619 58.8012 329.869 60.2075C327.118 61.5552 323.812 62.2288 319.95 62.2288C315.62 62.2287 311.67 61.2913 308.101 59.4162C304.59 57.4825 301.781 54.8159 299.675 51.4173C297.627 47.9602 296.603 43.9757 296.603 39.4639C296.603 34.8349 297.656 30.821 299.763 27.4225C301.869 24.0241 304.707 21.3876 308.276 19.5126C311.904 17.579 316 16.612 320.564 16.6119ZM323.637 25.4893C318.78 25.4893 315.006 26.7783 312.314 29.3565C309.623 31.8761 308.276 35.2451 308.276 39.4639C308.276 42.2765 308.92 44.7375 310.207 46.8469C311.495 48.8977 313.279 50.5098 315.561 51.6817C317.902 52.8536 320.594 53.4395 323.637 53.4395C327.089 53.4395 330.073 52.8536 332.59 51.6817C335.105 50.5098 337.036 48.8689 338.382 46.7597C339.728 44.6502 340.401 42.218 340.401 39.4639C340.401 36.4756 339.699 33.9556 338.295 31.9047C336.949 29.7954 335.017 28.2137 332.501 27.159C330.044 26.0457 327.089 25.4893 323.637 25.4893Z" fill="var(--fill-0, #000AFF)"/>
<path fill-rule="evenodd" clip-rule="evenodd" d="M66.2678 61.2622H53.541L47.8945 48.8691H18.2434L12.6396 61.2622H0L26.6828 4.39418H39.3215L66.2678 61.2622ZM22.6553 39.1124H43.4496L33.0129 16.206L22.6553 39.1124Z" fill="var(--fill-0, #000AFF)"/>
<path d="M87.0754 61.2622H75.665V0H87.0754V61.2622Z" fill="var(--fill-0, #000AFF)"/>
<path d="M118.231 17.5785H129.466V26.4559H118.231V61.2622H106.82V26.4559H95.5852V17.5785H106.82V5.62512H118.231V17.5785Z" fill="var(--fill-0, #000AFF)"/>
<path d="M227.287 26.9828C224.01 26.9828 221.172 27.6277 218.773 28.9168C216.374 30.1473 214.443 31.6709 212.98 33.4873C211.938 34.7813 211.119 36.0461 210.523 37.2806V61.2622H199.112V17.5785H210.523V30.85C210.932 29.4439 211.547 27.9497 212.366 26.3677C213.185 24.7271 214.267 23.174 215.613 21.7092C216.959 20.1857 218.598 18.9557 220.529 18.0182C222.46 17.0807 224.712 16.6119 227.287 16.6119V26.9828Z" fill="var(--fill-0, #000AFF)"/>
<path d="M268.21 16.6119C270.901 16.6119 273.389 16.9635 275.671 17.6666C277.953 18.3698 279.942 19.454 281.639 20.9189C283.336 22.3838 284.652 24.2587 285.589 26.544C286.525 28.7706 286.993 31.4365 286.993 34.542V61.2622H275.583V36.5633C275.583 32.8719 274.676 30.1764 272.862 28.4772C271.106 26.7193 268.21 25.8408 264.172 25.8408C261.13 25.8408 258.379 26.4268 255.921 27.5987C253.464 28.7706 251.474 30.2646 249.953 32.081C249.055 33.1179 248.384 34.1862 247.934 35.2843V61.2622H236.524V17.5785H247.934V30.1709C248.274 29.1516 248.713 28.1476 249.251 27.159C250.305 25.2254 251.709 23.4675 253.464 21.8854C255.278 20.2448 257.414 18.9557 259.872 18.0182C262.329 17.0807 265.108 16.6119 268.21 16.6119Z" fill="var(--fill-0, #000AFF)"/>
<path d="M383.467 17.5785H394.702V26.4559H383.467V61.2622H372.056V26.4559H360.822V17.5785H372.056V5.62512H383.467V17.5785Z" fill="var(--fill-0, #000AFF)"/>
</g>
</svg>
