<svg preserveAspectRatio="none" width="100%" height="100%" overflow="visible" style="display: block;" viewBox="0 0 8640 51" fill="none" xmlns="http://www.w3.org/2000/svg" xmlns:xlink="http://www.w3.org/1999/xlink">
<g id="Repeat group 1">
<g id="Repeat group 1_inner" data-figma-trr="l12u1-0f">
<path id="Union" d="M119.99 51H0V0C8.10083 1.28378e-05 15.1657 1.85875 21.5977 5.67871C27.0508 8.91763 31.1824 13.0085 35.1777 16.9648L35.1914 16.9785C42.3757 24.0901 48.0497 29.707 60 29.707C71.9531 29.707 77.6301 24.0876 84.8135 16.9736L84.8223 16.9648C88.8176 13.0086 92.9492 8.91761 98.4023 5.67871C104.831 1.8588 111.899 0 120 0L119.99 51ZM239.99 51H120V0C128.101 1.28378e-05 135.166 1.85875 141.598 5.67871C147.051 8.91763 151.182 13.0085 155.178 16.9648L155.191 16.9785C162.376 24.0901 168.05 29.707 180 29.707C191.953 29.707 197.63 24.0876 204.813 16.9736L204.822 16.9648C208.818 13.0086 212.949 8.91761 218.402 5.67871C224.831 1.8588 231.899 0 240 0L239.99 51ZM359.99 51H240V0C248.101 1.28378e-05 255.166 1.85875 261.598 5.67871C267.051 8.91763 271.182 13.0085 275.178 16.9648L275.191 16.9785C282.376 24.0901 288.05 29.707 300 29.707C311.953 29.707 317.63 24.0876 324.813 16.9736L324.822 16.9648C328.818 13.0086 332.949 8.91761 338.402 5.67871C344.831 1.8588 351.899 0 360 0L359.99 51ZM479.99 51H360V0C368.101 1.28378e-05 375.166 1.85875 381.598 5.67871C387.051 8.91763 391.182 13.0085 395.178 16.9648L395.191 16.9785C402.376 24.0901 408.05 29.707 420 29.707C431.953 29.707 437.63 24.0876 444.813 16.9736L444.822 16.9648C448.818 13.0086 452.949 8.91761 458.402 5.67871C464.831 1.8588 471.899 0 480 0L479.99 51ZM599.99 51H480V0C488.101 1.28378e-05 495.166 1.85875 501.598 5.67871C507.051 8.91763 511.182 13.0085 515.178 16.9648L515.191 16.9785C522.376 24.0901 528.05 29.707 540 29.707C551.953 29.707 557.63 24.0876 564.813 16.9736L564.822 16.9648C568.818 13.0086 572.949 8.91761 578.402 5.67871C584.831 1.8588 591.899 0 600 0L599.99 51ZM719.99 51H600V0C608.101 1.28378e-05 615.166 1.85875 621.598 5.67871C627.051 8.91763 631.182 13.0085 635.178 16.9648L635.191 16.9785C642.376 24.0901 648.05 29.707 660 29.707C671.953 29.707 677.63 24.0876 684.813 16.9736L684.822 16.9648C688.818 13.0086 692.949 8.91761 698.402 5.67871C704.831 1.8588 711.899 0 720 0L719.99 51Z" fill="var(--fill-0, #FFC7AA)"/>
</g>
<use xlink:href="#Repeat%20group%201_inner" transform="translate(720)"/>
<use xlink:href="#Repeat%20group%201_inner" transform="translate(1440)"/>
<use xlink:href="#Repeat%20group%201_inner" transform="translate(2160)"/>
<use xlink:href="#Repeat%20group%201_inner" transform="translate(2880)"/>
<use xlink:href="#Repeat%20group%201_inner" transform="translate(3600)"/>
<use xlink:href="#Repeat%20group%201_inner" transform="translate(4320)"/>
<use xlink:href="#Repeat%20group%201_inner" transform="translate(5040)"/>
<use xlink:href="#Repeat%20group%201_inner" transform="translate(5760)"/>
<use xlink:href="#Repeat%20group%201_inner" transform="translate(6480)"/>
<use xlink:href="#Repeat%20group%201_inner" transform="translate(7200)"/>
<use xlink:href="#Repeat%20group%201_inner" transform="translate(7920)"/>
</g>
</svg>
