<?xml version="1.0" encoding="utf-8"?>
<svg xmlns="http://www.w3.org/2000/svg" fill="none" height="93" overflow="visible" preserveAspectRatio="xMidYMid meet" style="display: block;" viewBox="0 0 600 139" width="400">
<g id="Frame 2147237786">
<g id="AF Logo">
<g id="AF Logo_2">
<path d="M307.838 115.993C307.838 118.799 308.276 121.021 309.152 122.658C310.086 124.236 311.429 125.347 313.18 125.99C314.932 126.633 317.004 126.954 319.398 126.954C322.55 126.954 325.266 126.282 327.542 124.938C329.819 123.535 331.659 121.839 333.06 119.851C334.074 118.47 334.862 117.131 335.425 115.835V91.5238H346.81V135.111H335.425V120.112C335.369 120.31 335.312 120.516 335.25 120.728C334.782 122.248 334.052 123.885 333.06 125.639C332.126 127.393 330.9 129.089 329.382 130.726C327.864 132.304 325.995 133.62 323.777 134.672C321.558 135.666 318.931 136.162 315.895 136.162C313.501 136.162 311.137 135.87 308.801 135.286C306.524 134.701 304.452 133.737 302.583 132.392C300.715 130.989 299.226 129.117 298.117 126.779C297.008 124.44 296.453 121.488 296.453 117.921V91.5238H307.838V115.993ZM410.037 115.993C410.037 118.799 410.474 121.021 411.35 122.658C412.284 124.236 413.627 125.347 415.378 125.99C417.13 126.633 419.204 126.954 421.597 126.954C424.75 126.954 427.465 126.282 429.742 124.938C432.019 123.535 433.858 121.839 435.259 119.851C436.273 118.47 437.06 117.131 437.624 115.835V91.5238H449.008V135.111H437.624V120.114C437.567 120.311 437.511 120.517 437.449 120.728C436.982 122.248 436.252 123.885 435.259 125.639C434.325 127.393 433.098 129.089 431.581 130.726C430.063 132.304 428.194 133.62 425.976 134.672C423.758 135.666 421.129 136.162 418.093 136.162C415.7 136.162 413.335 135.87 411 135.286C408.723 134.701 406.65 133.737 404.782 132.392C402.913 130.989 401.425 129.117 400.316 126.779C399.207 124.44 398.652 121.488 398.652 117.921V91.5238H410.037V115.993ZM523.864 90.559C529.585 90.559 534.344 91.4653 538.139 93.2777C541.934 95.0902 544.737 97.8386 546.546 101.522C548.415 105.147 549.203 109.795 548.911 115.466H507.399C507.691 117.688 508.508 119.705 509.851 121.517C511.252 123.329 513.121 124.762 515.457 125.815C517.85 126.867 520.682 127.393 523.952 127.393C527.571 127.393 530.579 126.779 532.972 125.551C535.424 124.265 537 122.628 537.701 120.64H548.736C548.269 123.622 547.013 126.282 544.97 128.62C542.985 130.959 540.27 132.801 536.826 134.146C533.381 135.491 529.177 136.162 524.214 136.162C518.668 136.162 513.763 135.285 509.501 133.532C505.239 131.719 501.911 129.118 499.517 125.727C497.123 122.336 495.926 118.243 495.926 113.449C495.926 108.655 497.095 104.562 499.43 101.171C501.766 97.722 505.006 95.0901 509.151 93.2777C513.354 91.4655 518.259 90.559 523.864 90.559ZM579.015 90.559C583.335 90.559 586.926 91.2025 589.787 92.4886C592.647 93.7164 594.779 95.4703 596.18 97.7504C597.64 99.972 598.37 102.545 598.37 105.468H588.298C587.831 103.305 586.897 101.755 585.496 100.82C584.095 99.8259 581.934 99.3296 579.015 99.3295C576.155 99.3295 573.993 99.7681 572.534 100.645C571.074 101.522 570.344 102.721 570.344 104.241C570.344 105.468 570.783 106.433 571.659 107.134C572.593 107.777 573.936 108.304 575.687 108.713C577.497 109.122 579.745 109.561 582.43 110.029C584.707 110.496 586.867 111.022 588.911 111.607C591.012 112.191 592.881 112.952 594.516 113.887C596.151 114.764 597.436 115.963 598.37 117.483C599.362 118.944 599.858 120.816 599.858 123.096C599.858 125.902 599.04 128.27 597.406 130.2C595.829 132.129 593.552 133.62 590.575 134.672C587.597 135.666 584.035 136.162 579.89 136.162C576.212 136.162 573.03 135.783 570.344 135.023C567.717 134.204 565.527 133.181 563.776 131.953C562.024 130.667 560.652 129.322 559.66 127.919C558.726 126.458 558.083 125.083 557.733 123.797C557.383 122.511 557.267 121.458 557.383 120.64H567.892C568.534 122.628 569.848 124.265 571.833 125.551C573.877 126.779 576.534 127.393 579.803 127.393C582.021 127.393 583.744 127.188 584.97 126.779C586.196 126.369 587.043 125.785 587.51 125.025C587.977 124.206 588.21 123.3 588.21 122.306C588.21 121.079 587.83 120.143 587.072 119.5C586.313 118.799 585.145 118.243 583.569 117.833C581.993 117.424 579.978 117.045 577.526 116.694C575.074 116.284 572.709 115.787 570.432 115.203C568.155 114.618 566.141 113.858 564.389 112.922C562.638 111.928 561.236 110.701 560.185 109.24C559.193 107.72 558.697 105.877 558.697 103.714C558.697 101.61 559.193 99.7388 560.185 98.1019C561.236 96.465 562.667 95.0906 564.477 93.9799C566.345 92.8692 568.506 92.0205 570.958 91.4359C573.468 90.8513 576.154 90.559 579.015 90.559ZM290.044 88.1039H246.431V103.364H282.163V112.484H246.431V135.111H234.783V78.3695H290.044V88.1039ZM378.457 91.5238H389.667V100.381H378.457V135.111H367.072V100.381H355.862V91.5238H367.072V79.597H378.457V91.5238ZM489.239 100.908C485.969 100.908 483.137 101.551 480.744 102.837C478.35 104.065 476.423 105.586 474.963 107.398C473.924 108.689 473.107 109.951 472.511 111.183V135.111H461.126V91.5238H472.511V104.767C472.92 103.364 473.533 101.873 474.35 100.294C475.167 98.6574 476.249 97.1074 477.591 95.6459C478.934 94.126 480.569 92.8976 482.496 91.9623C484.422 91.0271 486.67 90.559 489.239 90.559V100.908ZM523.338 99.2416C519.135 99.2416 515.72 100.178 513.092 102.048C510.465 103.861 508.771 106.112 508.012 108.801H537.614C537.322 105.878 535.92 103.568 533.41 101.872C530.958 100.119 527.6 99.2416 523.338 99.2416ZM164.152 18.391C169.873 18.391 174.631 19.2974 178.426 21.1097C182.221 22.9222 185.025 25.6696 186.834 29.3529C188.703 32.9778 189.491 37.626 189.199 43.2972H147.687C147.979 45.519 148.796 47.5366 150.139 49.349C151.54 51.1612 153.409 52.5936 155.744 53.6459C158.137 54.6982 160.969 55.224 164.239 55.224C167.859 55.224 170.866 54.61 173.259 53.3822C175.711 52.0959 177.288 50.4589 177.989 48.4711H189.024C188.557 51.4528 187.301 54.1139 185.257 56.4525C183.272 58.7909 180.557 60.6323 177.113 61.9769C173.668 63.3216 169.464 63.9945 164.501 63.9945C158.955 63.9945 154.051 63.1176 149.789 61.3636C145.527 59.5512 142.199 56.949 139.805 53.558C137.411 50.1671 136.214 46.0747 136.214 41.2806C136.214 36.4865 137.382 32.3933 139.717 29.0023C142.053 25.5528 145.294 22.9222 149.439 21.1097C153.643 19.2974 158.547 18.391 164.152 18.391ZM428.8 18.391C434.522 18.391 439.281 19.2973 443.076 21.1097C446.87 22.9222 449.673 25.6697 451.483 29.3529C453.351 32.9778 454.139 37.626 453.847 43.2972H412.335C412.627 45.519 413.445 47.5366 414.788 49.349C416.189 51.1613 418.058 52.5935 420.393 53.6459C422.787 54.6982 425.619 55.224 428.888 55.224C432.508 55.224 435.515 54.6099 437.909 53.3822C440.361 52.096 441.937 50.4588 442.637 48.4711H453.672C453.205 51.4528 451.95 54.1139 449.907 56.4525C447.922 58.7911 445.206 60.6322 441.761 61.9769C438.317 63.3215 434.113 63.9945 429.151 63.9945C423.604 63.9945 418.699 63.1176 414.437 61.3636C410.175 59.5512 406.847 56.9489 404.454 53.558C402.06 50.1671 400.863 46.0746 400.863 41.2806C400.863 36.4865 402.03 32.3933 404.366 29.0023C406.701 25.5528 409.942 22.9222 414.087 21.1097C418.291 19.2973 423.195 18.391 428.8 18.391ZM320.606 18.391C325.627 18.391 329.655 19.4142 332.691 21.4603C335.785 23.4482 338.034 26.1671 339.435 29.6166C339.806 30.5286 340.125 31.4696 340.398 32.4388V19.3558H351.784V62.9418H341.186C341.184 62.9313 341.097 62.3759 340.923 61.2758C340.807 60.1065 340.69 58.6448 340.574 56.891C340.457 55.137 340.398 53.4117 340.398 51.7162V48.7894C340.369 48.8879 340.341 48.9867 340.311 49.0853C339.494 51.7163 338.238 54.1723 336.544 56.4525C334.851 58.6739 332.633 60.486 329.889 61.889C327.145 63.2337 323.846 63.9066 319.993 63.9066C315.672 63.9066 311.731 62.9709 308.169 61.1C304.666 59.1706 301.864 56.5105 299.762 53.1195C297.719 49.6701 296.697 45.6945 296.697 41.1927C296.697 36.574 297.748 32.5691 299.85 29.1781C301.952 25.7872 304.783 23.1555 308.344 21.2845C311.964 19.3552 316.052 18.391 320.606 18.391ZM66.8726 62.9418H54.1743L48.5405 50.5765H18.9546L13.3628 62.9418H0.751465L27.3755 6.20056H39.9868L66.8726 62.9418ZM87.6343 62.9418H76.2495V1.8158H87.6343V62.9418ZM118.72 19.3558H129.93V28.2133H118.72V62.9418H107.335V28.2133H96.1255V19.3558H107.335V7.4281H118.72V19.3558ZM227.535 28.7396C224.265 28.7396 221.433 29.3821 219.04 30.6683C216.646 31.8961 214.719 33.4164 213.259 35.2289C212.219 36.5201 211.403 37.7821 210.807 39.014V62.9418H199.422V19.3558H210.807V32.598C211.216 31.1949 211.829 29.7039 212.646 28.1254C213.463 26.4883 214.543 24.9386 215.886 23.4769C217.229 21.9568 218.865 20.7298 220.792 19.7943C222.718 18.8589 224.966 18.391 227.535 18.391V28.7396ZM267.94 18.391C270.626 18.391 273.107 18.7412 275.384 19.4427C277.661 20.1443 279.646 21.2263 281.339 22.6879C283.033 24.1495 284.347 26.021 285.281 28.3011C286.215 30.5228 286.681 33.1831 286.681 36.2816V62.9418H275.296V38.2982C275.296 34.73 274.447 32.0946 272.749 30.392L272.415 30.0677C270.649 28.4217 267.814 27.599 263.912 27.599C260.876 27.599 258.131 28.1836 255.679 29.3529C253.227 30.5222 251.242 32.0132 249.724 33.8256C248.829 34.8602 248.158 35.9262 247.709 37.0219V62.9418H236.325V19.3558H247.709V31.9213C248.048 30.9039 248.485 29.9012 249.023 28.9144C250.074 26.9851 251.476 25.2313 253.227 23.6527C255.037 22.0157 257.168 20.7298 259.621 19.7943C262.073 18.8589 264.846 18.391 267.94 18.391ZM383.369 19.3558H394.579V28.2133H383.369V62.9418H371.983V28.2133H360.773V19.3558H371.983V7.4281H383.369V19.3558ZM323.67 27.2484C318.825 27.2485 315.059 28.5345 312.374 31.1068C309.688 33.6209 308.344 36.9832 308.344 41.1927C308.344 43.9988 308.987 46.4543 310.271 48.559C311.555 50.6052 313.337 52.2129 315.614 53.3822C317.949 54.5515 320.635 55.137 323.67 55.1371C327.115 55.1371 330.093 54.5515 332.604 53.3822C335.114 52.2129 337.041 50.5757 338.384 48.4711C339.727 46.3665 340.398 43.9403 340.398 41.1927C340.398 38.2111 339.697 35.697 338.296 33.6508C336.954 31.546 335.027 29.9668 332.516 28.9144C330.064 27.8036 327.115 27.2484 323.67 27.2484ZM23.356 40.8422H44.105L33.6909 17.9857L23.356 40.8422ZM163.626 27.0726C159.423 27.0726 156.007 28.0084 153.379 29.8793C150.752 31.6917 149.059 33.9428 148.3 36.6322H177.901C177.609 33.7089 176.208 31.399 173.698 29.7035C171.246 27.9496 167.888 27.0727 163.626 27.0726ZM428.275 27.0726C424.071 27.0726 420.655 28.0084 418.028 29.8793C415.401 31.6917 413.708 33.9428 412.949 36.6322H442.55C442.258 33.7089 440.857 31.399 438.346 29.7035C435.894 27.9496 432.537 27.0727 428.275 27.0726Z" fill="var(--fill-0, #0026FF)" id="Union"/>
</g>
</g>
</g>
</svg>