<svg xmlns="http://www.w3.org/2000/svg" fill="none" overflow="visible" preserveAspectRatio="none" style="display:block" viewBox="0 0 20 20"><path fill="#000AFF" fill-rule="evenodd" d="M20 2.5C20 1.12 18.88 0 17.5 0h-15C1.12 0 0 1.12 0 2.5v15C0 18.88 1.12 20 2.5 20h15c1.38 0 2.5-1.12 2.5-2.5z" clip-rule="evenodd"/><path fill="var(--fill-0, #f8f5ee)" d="M5.735 6.978h-3.35v10.077h3.35zM4.082 2.12c-1.146 0-1.894.753-1.894 1.741 0 .967.726 1.741 1.85 1.741h.022c1.168 0 1.895-.774 1.895-1.74-.022-.989-.727-1.742-1.873-1.742M13.956 6.742c-1.777 0-2.573.977-3.019 1.663V6.978h-3.35c.045.946 0 10.077 0 10.077h3.35v-5.627c0-.302.022-.603.11-.818.242-.602.794-1.225 1.719-1.225 1.211 0 1.697.925 1.697 2.279v5.391h3.349v-5.778c0-3.096-1.653-4.535-3.856-4.535"/></svg>