<svg xmlns="http://www.w3.org/2000/svg" id="Layer_1" data-name="Layer 1" viewBox="0 0 958.8 359.2"><defs><style>.cls-1{fill:#fff}</style></defs><path d="M168.32 287.97c-9.49-.02-10.58-1.14-10.58-10.89v-6.4c-21.44-2.11-41.44-11.62-56.54-26.94a92.32 92.32 0 0 1-26.17-56.31h-1.54c-1.28 0-2.56-.01-3.85-.01-2.1 0-3.82.02-5.41.06h-.35c-1.16 0-2.85-.14-4.1-1.43-.95-.97-1.4-2.32-1.36-4.14.02-1.13.03-2.1.03-2.95.02-4.78.04-7.94 5.91-7.94.41 0 .87 0 1.38.02.62.01 1.32.02 2.11.02H69c1.03-.02 2.06-.02 3.1-.02h3.12c1.97-21.92 10.72-40.93 26.02-56.51 15.19-15.47 34.16-24.38 56.41-26.49 0-.58 0-1.16.01-1.73.02-3.21.04-6.24-.05-9.3-.04-1.33.07-3.02 1.3-4.29 1.25-1.3 2.99-1.46 4.18-1.47 0 0 1.48-.01 2.02-.01 3.07 0 5.98 0 7.64 2.27 1.29 1.76 1.29 4.12 1.29 8.42v6.09c22.36 2.21 41.41 11.13 56.67 26.53 15.26 15.41 24.1 34.41 26.3 56.51.59 0 1.18 0 1.77.01 1.29 0 2.56.02 3.83.02 2.05 0 3.72-.02 5.26-.07h.37c.68 0 2.76 0 4.22 1.47.99 1 1.46 2.4 1.45 4.28v2.25c0 5.28 0 8.47-5.76 8.47-.42 0-.9 0-1.44-.02-.65-.01-1.4-.03-2.26-.03h-.99c-1.03.02-2.06.02-3.09.02h-2.98c-3.75 23.67-12.59 42.68-26.3 56.54-13.73 13.88-32.73 22.97-56.49 27.02 0 .52 0 1.04-.01 1.56-.02 3.06-.05 6.21.06 9.36.04 1.27-.06 3.11-1.39 4.49-1.35 1.4-3.27 1.56-4.6 1.56h-.29ZM91.74 187.41c1.62 17.59 9.61 34.04 22.68 46.58 12.26 11.76 27.91 18.97 43.26 19.99.04-2.85.07-5.8.05-8.69 0-.95-.02-1.78-.04-2.51-.07-3.34-.1-5.18 1.27-6.58 1.34-1.37 3.15-1.37 5.9-1.38.86 0 1.89 0 3.1-.04h.45c1.3 0 3.18.16 4.52 1.56 1.38 1.44 1.45 3.45 1.39 4.83-.16 3.55-.13 7.21-.09 10.74 0 .66.01 1.32.02 1.98 30.41-1.97 63.04-28.34 66.07-66.48h-6.53c-4.23 0-6.79 0-8.53-1.76-1.73-1.75-1.7-4.28-1.65-8.86v-.22c.06-4.62 2.95-5.6 5.36-5.6h.34c1.62.05 3.38.07 5.53.07 1.32 0 2.64 0 3.96-.02h1.38c-1.12-17.31-9.02-33.74-22.44-46.51-12.57-11.96-28.37-19.12-43.7-19.89v9.1c0 8.75-1.05 9.89-9.4 10.14h-.48c-.16.02-.31.02-.47.02-1.36 0-3.33-.17-4.71-1.62-1.41-1.48-1.5-3.53-1.42-5.16.17-3.53.13-7.16.09-10.67 0-.64-.01-1.28-.02-1.93-37.95 3.27-63.96 36.07-65.68 66.51h3.35c1.19 0 2.37 0 3.56.02h1.12c.65 0 1.24 0 1.76-.01.44 0 .83-.01 1.19-.01 5.42 0 5.71 2.53 5.74 6.99 0 .81.01 1.76.05 2.89.04 1.45-.07 3.54-1.5 5.02-1.02 1.06-2.47 1.57-4.42 1.57-.22 0-.45 0-.7-.02-1.51-.08-3.14-.12-5.14-.12-1.3 0-2.61.02-3.91.03-.43 0-.86.01-1.29.01Z"/><path d="M165.1 73.73c6.43 0 6.42.58 6.42 8.19v8.37c22.44 1.74 41.68 10.14 57.39 26.01 15.61 15.76 24.05 34.91 25.79 57.24 2.7 0 5.31.03 7.88.03 1.79 0 3.56-.02 5.33-.07h.29c2.18 0 3.18.77 3.16 3.22-.06 7.48.4 8.24-3.27 8.24-.94 0-2.15-.05-3.7-.05h-1.02c-1.02.02-2.04.02-3.05.02-1.72 0-3.43-.01-5.14-.01-6.97 48.45-34.46 76.32-83.13 83.94 0 4.11-.11 8.63.04 13.14.09 2.64-.91 3.46-3.49 3.46h-.03c-8.34-.02-8.34.07-8.34-8.4v-8.7c-45.12-3.31-79.94-39.27-82.91-83.44-2.56 0-5.13-.03-7.7-.03-1.82 0-3.65.01-5.47.06h-.28c-2.05 0-3.01-.68-2.96-3.02.16-7.72-.52-8.44 3.44-8.44.9 0 2.04.04 3.49.04h1.19c1.01-.02 2.03-.02 3.06-.02 1.74 0 3.53.01 5.43.01 1.51-22.33 9.96-41.45 25.49-57.27 15.58-15.87 34.68-24.3 57.12-25.94 0-4.58.09-9-.04-13.41-.07-2.26.56-3.17 3-3.19.73 0 1.4-.01 2-.01m-75.73 99.85c1.97 0 3.95-.01 5.92-.01 1.18 0 2.35 0 3.53.02h1.15c1.2 0 2.17-.02 2.95-.02 3.85 0 3.08.58 3.29 7.45.09 2.86-.77 4.01-3.42 4.01-.18 0-.37 0-.57-.02a103 103 0 0 0-5.27-.12c-2.63 0-5.26.06-7.89.06 2.28 41.02 37.17 70.74 70.81 71.66.1-.18.29-.35.29-.53.04-3.59.1-7.19.08-10.78-.06-9.23-1.06-7.73 7.8-7.99h.37c2.63 0 3.54.93 3.41 3.78-.23 5.14-.06 10.3-.06 15.45 33.64-.66 69.43-30.42 71.21-71.58h-9.19c-7.85 0-7.77-.12-7.68-8.3.03-2.24.71-3.12 2.86-3.12h.27c1.87.06 3.73.07 5.6.07 2.65 0 5.3-.03 7.96-.03-1.04-40.35-37.42-71.32-71.26-71.46v11.67c0 7.6 0 7.43-7.45 7.65h-.39c-2.99 0-3.78-1.14-3.64-4.16.24-5.12.07-10.25.07-15.39-41.51 2.06-70.37 38.69-70.75 71.69M165.1 68.73h-2.04c-.95 0-3.84.03-5.97 2.23-2.12 2.2-2.03 5.14-2 6.11.09 2.86.07 5.71.06 8.71-21.88 2.54-40.6 11.61-55.7 26.99-15.18 15.47-24.08 34.21-26.49 55.76h-.86c-1.06 0-2.1 0-3.14.02h-1.11c-.78 0-1.46-.01-2.07-.02-.53 0-1-.02-1.42-.02-1.74 0-5.36 0-7.31 3.39-1.08 1.89-1.09 3.82-1.11 7.03 0 .83 0 1.8-.03 2.91-.05 2.48.65 4.48 2.07 5.94 2.14 2.18 4.96 2.18 5.89 2.18h.42c1.56-.04 3.26-.06 5.34-.06 1.05 0 2.09 0 3.14.01 2.45 20.93 11.8 40.52 26.65 55.57 14.98 15.19 34.65 24.82 55.82 27.42v4.17c0 5.17 0 8.3 2.41 10.8 2.48 2.58 5.74 2.58 10.66 2.59h.26c1.08 0 4.19 0 6.42-2.32 2.23-2.3 2.13-5.32 2.09-6.31-.1-2.92-.08-5.88-.06-8.75 23.32-4.31 42.08-13.51 55.78-27.36 13.67-13.82 22.62-32.57 26.64-55.79h.87c1.04 0 2.08 0 3.13-.02h.95c.84 0 1.57.02 2.21.03.56.01 1.05.02 1.49.02 1.5 0 5.47 0 7.33-3.75.93-1.87.93-3.88.93-7.22v-2.23c.02-2.55-.71-4.59-2.17-6.06-2.19-2.21-5.05-2.21-5.99-2.21h-.44c-1.51.04-3.16.06-5.19.06-1.11 0-2.22 0-3.35-.01-2.62-21.73-11.61-40.48-26.76-55.78-15.16-15.31-33.96-24.38-55.94-27.02V81.9c0-4.67 0-7.49-1.77-9.9-2.41-3.29-6.43-3.29-9.66-3.29Zm-70.44 99.81c1.43-13.77 7.96-27.75 18.34-39.05 11.38-12.37 26.19-20.12 42.16-22.17.03 3.33.05 6.51-.1 9.7-.09 1.96.02 4.82 2.11 7 2.29 2.4 5.48 2.4 6.52 2.4h1.02c4.26-.14 7.34-.23 9.64-2.75 2.18-2.39 2.18-5.38 2.18-9.9v-6.41c13.91 1.38 28.05 8.14 39.48 19.01 12.27 11.67 19.77 26.5 21.44 42.21h-2.62c-2.12 0-3.85-.02-5.45-.07h-.42c-4.86 0-7.8 3.02-7.86 8.07v.22c-.06 4.9-.1 8.14 2.37 10.64s5.76 2.5 10.31 2.5h3.77c-1.93 15.95-9.51 30.83-21.68 42.35-11.22 10.63-25.25 17.35-39.15 18.9-.03-3.4-.05-6.63.1-9.89.05-1.06.2-4.29-2.08-6.67-2.23-2.34-5.31-2.34-6.32-2.34h-.52c-1.17.04-2.16.04-3.03.04-3.01 0-5.61.01-7.68 2.13-2.11 2.15-2.06 4.76-1.98 8.38.01.72.03 1.54.04 2.48.01 1.96 0 3.96-.02 5.94-13.91-1.59-27.92-8.38-39.06-19.07-11.97-11.48-19.53-26.34-21.62-42.31.8 0 1.61-.01 2.41-.01 1.95 0 3.54.04 5 .11.29.02.57.02.83.02 2.63 0 4.72-.78 6.22-2.33 2.34-2.41 2.24-5.74 2.2-6.83-.03-1.1-.04-2.04-.05-2.83-.02-2.71-.03-4.66-1.25-6.51-1.95-2.96-5.23-2.96-6.98-2.96-.37 0-.77 0-1.22.01-.51 0-1.09.01-1.73.01H98.9c-1.2-.02-2.4-.02-3.6-.02h-.63Z" class="cls-1"/><path d="M138.32 229.79c-1.34 0-3.27-.16-4.64-1.54s-1.53-3.32-1.52-4.85c.08-12.13.07-24.48.06-36.41v-11.21c-.92.82-1.77 1.6-2.57 2.4-.47.48-1.92 1.93-3.98 1.93-1.27 0-2.5-.53-3.74-1.63a480 480 0 0 0-12.7-10.86c-1.54-1.27-2.35-2.6-2.47-4.06-.16-1.97.97-3.51 1.84-4.5 3.17-3.61 6.35-7.32 9.42-10.91s6.26-7.3 9.43-10.93c1.24-1.41 3-2.62 4.84-3.3 3.65-1.36 7.78-2.9 12.07-3.85.89-.2 1.83-.3 2.8-.3 1.93 0 3.77.41 5.2 1.15 4.61 2.4 9.09 3.56 13.68 3.56s9.21-1.17 14.06-3.59c1.78-.88 3.78-1.07 5.14-1.07 1.15 0 2.33.13 3.43.37 3.46.77 6.79 1.98 10.02 3.16.67.24 1.33.49 2 .73 1.85.66 3.27 1.55 4.21 2.64 2.82 3.25 5.64 6.57 8.38 9.79 3.39 3.98 6.89 8.1 10.39 12.09.93 1.06 2.16 2.72 1.99 4.77-.17 2.02-1.59 3.4-2.64 4.25-3.95 3.22-7.87 6.64-11.67 9.94l-1.05.92c-1.24 1.08-2.45 1.61-3.69 1.61-1.33 0-2.59-.61-3.76-1.8a60 60 0 0 0-2.77-2.63v11.38c-.01 11.87-.03 24.15.07 36.21.01 1.43-.14 3.49-1.58 4.94-1.43 1.44-3.47 1.61-4.88 1.61-9.54-.05-18.83-.08-27.71-.08-9.38 0-18.65.03-27.55.09h-.1Z"/><path d="M147.15 132.26c1.43 0 2.9.27 4.04.86 4.98 2.59 9.91 3.84 14.84 3.84s10.07-1.31 15.17-3.85c1.14-.57 2.59-.81 4.03-.81 1 0 2 .11 2.89.31 3.99.88 7.85 2.41 11.72 3.79 1.15.41 2.39 1.03 3.17 1.92 6.3 7.26 12.43 14.67 18.77 21.89 1.91 2.17 1.89 3.61-.35 5.43-4.34 3.54-8.56 7.23-12.78 10.91-.73.63-1.38.99-2.05.99s-1.27-.33-1.97-1.05c-1.98-2.03-4.17-3.86-7.05-6.49v4.36c0 16.29-.07 32.58.06 48.86.02 3.06-.99 4.03-3.96 4.03h-.08c-9.2-.05-18.41-.08-27.61-.08s-18.39.03-27.59.09h-.08c-2.95 0-3.68-1.06-3.66-3.88.11-16.29.05-32.57.05-48.86v-4.3c-2.72 2.43-4.89 4.19-6.84 6.16-.78.79-1.48 1.19-2.2 1.19-.65 0-1.32-.33-2.08-1-4.2-3.71-8.44-7.36-12.77-10.92-2.02-1.66-2.06-3.02-.34-4.98 6.34-7.23 12.51-14.61 18.85-21.84.99-1.13 2.42-2.08 3.83-2.61 3.85-1.43 7.74-2.86 11.74-3.75.7-.16 1.47-.24 2.25-.24m0-4.97c-1.15 0-2.28.12-3.34.36-4.46.99-8.68 2.56-12.4 3.95-2.21.82-4.34 2.28-5.85 4-3.18 3.63-6.37 7.35-9.44 10.94s-6.25 7.3-9.41 10.9c-.67.77-2.72 3.1-2.45 6.35.26 3.23 2.61 5.16 3.38 5.79 3.9 3.21 8.04 6.74 12.64 10.81 1.69 1.5 3.51 2.25 5.39 2.25 1.41 0 2.77-.42 4.05-1.26v5.61c.01 11.94.02 24.3-.06 36.43 0 1.19-.03 4.34 2.25 6.63 2.26 2.28 5.39 2.28 6.42 2.28h.12c8.9-.06 18.17-.09 27.55-.09 8.87 0 18.15.03 27.59.08h.11c1.86 0 4.57-.24 6.65-2.34 2.1-2.11 2.32-4.85 2.3-6.72-.09-12.07-.08-24.35-.07-36.23v-5.68c1.25.84 2.6 1.27 4.03 1.27 2.78 0 4.7-1.67 5.33-2.22l1.07-.93c3.77-3.29 7.67-6.68 11.58-9.87.81-.66 3.27-2.67 3.55-5.98.28-3.35-1.89-5.81-2.6-6.63-3.49-3.97-6.98-8.09-10.36-12.07-2.74-3.22-5.57-6.55-8.39-9.81-1.23-1.42-3-2.55-5.26-3.36l-1.98-.72c-3.3-1.2-6.72-2.45-10.34-3.25-1.28-.28-2.65-.43-3.97-.43-2.34 0-4.51.46-6.25 1.33-4.49 2.24-8.73 3.33-12.94 3.33s-8.28-1.07-12.53-3.28c-2.27-1.18-4.71-1.43-6.35-1.43Z" class="cls-1"/><path d="M460.53 165.02c-1.82 0-3.33-1.36-3.52-3.17l-.89-8.52a3.66 3.66 0 0 0-2.3-3.04l-7.38-2.94a3.48 3.48 0 0 1-2.22-3.38c.04-1.5.99-2.77 2.42-3.25l10.78-3.58c.89-.3 1.63-.92 2.08-1.75l5.63-10.42c.62-1.14 1.8-1.85 3.1-1.85 1.82 0 3.33 1.36 3.52 3.17l.89 8.52a3.66 3.66 0 0 0 2.3 3.04l7.38 2.94c1.39.55 2.27 1.88 2.22 3.38-.04 1.5-.99 2.77-2.42 3.25L471.34 151c-.89.3-1.63.92-2.08 1.75l-5.63 10.42a3.52 3.52 0 0 1-3.1 1.85"/><path d="M468.22 125.63c.49 0 .97.34 1.03.92l.89 8.52a6.19 6.19 0 0 0 3.86 5.1l7.38 2.94c.89.36.86 1.63-.06 1.94l-10.78 3.58c-1.49.5-2.74 1.54-3.49 2.93l-5.63 10.42c-.2.37-.55.54-.9.54-.49 0-.97-.34-1.03-.92l-.89-8.52a6.19 6.19 0 0 0-3.86-5.1l-7.38-2.94c-.89-.36-.86-1.63.06-1.94l10.78-3.58c1.49-.5 2.74-1.54 3.49-2.93l5.63-10.42c.2-.37.55-.54.9-.54m0-5a6.02 6.02 0 0 0-5.3 3.17l-5.63 10.42c-.14.27-.38.46-.67.56l-10.78 3.58c-2.4.8-4.05 3.03-4.13 5.55a6.06 6.06 0 0 0 3.8 5.78l7.38 2.94c.41.16.69.54.74.98l.89 8.52c.32 3.08 2.9 5.41 6.01 5.41a6.02 6.02 0 0 0 5.3-3.17l5.63-10.42c.14-.27.38-.46.67-.56l10.78-3.58c2.4-.8 4.05-3.03 4.13-5.55a6.06 6.06 0 0 0-3.8-5.78l-7.38-2.94c-.41-.16-.69-.54-.74-.98l-.89-8.52a6.024 6.024 0 0 0-6.01-5.41" class="cls-1"/><path d="M293.78 234.77a4.55 4.55 0 0 1-3.54-1.69 4.51 4.51 0 0 1-.92-3.81l19.46-92.33c.44-2.1 2.32-3.62 4.46-3.62h27.9c18.07 0 29.32 3.49 35.41 10.98 5.56 6.84 6.75 16.68 3.76 30.98-4.67 21.87-18.7 30.78-48.44 30.78h-9.6l-5.24 25.08c-.44 2.1-2.32 3.63-4.46 3.63H293.8Zm41.8-52.03c15.21 0 18.38-3.39 20.08-11.51 1.12-5.08.89-8.36-.7-10.34-1.93-2.4-6.48-3.57-13.91-3.57h-8.52l-5.36 25.43h8.41Z"/><path d="M341.13 135.82c31.48 0 42.65 10.6 36.72 38.95-4.59 21.5-18.6 28.8-46 28.8h-9.96c-.98 0-1.82.68-2.02 1.64l-5.31 25.43c-.2.96-1.04 1.64-2.02 1.64h-18.77c-1.31 0-2.29-1.2-2.02-2.49l19.46-92.33c.2-.95 1.04-1.64 2.02-1.64zm-14.5 49.42h8.95c15.56 0 20.42-3.48 22.53-13.5 2.64-12-1.42-16.93-17.06-16.93h-8.88c-.97 0-1.82.68-2.02 1.64l-5.55 26.3c-.27 1.28.71 2.49 2.02 2.49m14.51-54.42h-27.9c-3.32 0-6.22 2.36-6.91 5.6l-19.46 92.33c-.44 2.09.08 4.24 1.43 5.9a7.04 7.04 0 0 0 5.48 2.61h18.77c3.33 0 6.23-2.36 6.91-5.62l4.82-23.09h7.57c15.29 0 26.13-2.24 34.13-7.05 8.7-5.23 14.18-13.64 16.76-25.7 3.12-14.9 1.72-25.72-4.26-33.09-6.6-8.12-18.47-11.91-37.35-11.91Zm-6.57 28.99h6.49c8.14 0 11 1.43 11.96 2.64 1.05 1.31 1.12 4.07.21 8.22-1.33 6.31-2.71 9.57-17.65 9.57h-5.33l4.31-20.43Z" class="cls-1"/><path d="M379.74 234.75a4.55 4.55 0 0 1-3.54-1.69 4.56 4.56 0 0 1-.92-3.82l12.97-61.29c.44-2.1 2.32-3.62 4.46-3.62h17.82c1.38 0 2.67.61 3.54 1.68s1.21 2.46.93 3.81l-.36 1.73c5.33-5.18 11.88-7.95 19.97-8.46h.29c1.38 0 2.68.61 3.56 1.68.87 1.06 1.21 2.44.94 3.78l-3.09 15.44c-.42 2.12-2.31 3.66-4.49 3.66-.11 0-.21 0-.32-.01-1.53-.11-2.87-.16-4.08-.16-12.67 0-17.48 5.35-24.96 40.79l-.47 2.7a4.55 4.55 0 0 1-4.49 3.77h-17.75Z"/><path d="M434.9 165.61c1.3 0 2.31 1.18 2.05 2.47l-3.09 15.44c-.19.97-1.06 1.65-2.04 1.65h-.15c-1.5-.11-2.92-.17-4.26-.17-14.72 0-19.92 7.32-27.41 42.77l-.49 2.78a2.06 2.06 0 0 1-2.03 1.7h-17.75c-1.31 0-2.29-1.21-2.02-2.49l12.97-61.29c.2-.95 1.04-1.63 2.02-1.63h17.82c1.31 0 2.28 1.2 2.02 2.48l-.67 3.23c-.3 1.42.83 2.48 2.03 2.48.52 0 1.06-.2 1.5-.67 5.22-5.57 11.57-8.26 19.37-8.75h.14m-.01-5c-.15 0-.3 0-.45.01-6.71.42-12.44 2.29-17.35 5.69-.26-.66-.63-1.29-1.09-1.85a7.03 7.03 0 0 0-5.48-2.61h-17.82c-3.32 0-6.22 2.35-6.91 5.6l-12.97 61.29c-.44 2.09.08 4.25 1.42 5.91a7.05 7.05 0 0 0 5.49 2.61h17.75c3.43 0 6.36-2.45 6.95-5.83l.48-2.7c7.84-37.08 12.84-38.72 22.5-38.72 1.15 0 2.43.05 3.91.15.17.01.33.02.5.02 3.36 0 6.28-2.39 6.94-5.67l3.09-15.44a7.02 7.02 0 0 0-1.46-5.85 7.08 7.08 0 0 0-5.49-2.6Z" class="cls-1"/><path d="M436.98 234.75c-1.38 0-2.67-.62-3.54-1.69s-1.21-2.46-.92-3.82l12.97-61.29c.44-2.1 2.32-3.62 4.46-3.62h18.34c1.38 0 2.67.62 3.54 1.69s1.21 2.46.92 3.82l-12.97 61.29a4.58 4.58 0 0 1-4.46 3.62z"/><path d="M468.29 166.85c1.31 0 2.29 1.21 2.02 2.49l-12.97 61.29c-.2.95-1.04 1.63-2.02 1.63h-18.34c-1.31 0-2.29-1.21-2.02-2.49l12.97-61.29c.2-.95 1.04-1.63 2.02-1.63zm0-5h-18.34c-3.32 0-6.22 2.35-6.91 5.6l-12.97 61.29c-.44 2.09.08 4.25 1.42 5.91s3.35 2.61 5.49 2.61h18.34c3.32 0 6.22-2.35 6.91-5.6l12.97-61.29c.44-2.09-.08-4.25-1.42-5.91s-3.35-2.61-5.49-2.61" class="cls-1"/><path d="M520.33 234.75c-1.39 0-2.68-.62-3.55-1.7a4.56 4.56 0 0 1-.91-3.83l6.84-31.52c1.61-7.93.73-11.08-.28-12.32-.26-.31-1.03-1.26-3.6-1.26-9.07 0-16.1 11.62-20.89 34.54l-2.56 12.46a4.57 4.57 0 0 1-4.47 3.64h-17.8a4.55 4.55 0 0 1-3.54-1.69 4.56 4.56 0 0 1-.92-3.82l12.97-61.29c.44-2.1 2.32-3.62 4.46-3.62h17.81c1.38 0 2.67.62 3.54 1.69s1.2 2.47.92 3.82l-.37 1.76c5.96-5.7 13.29-8.58 21.8-8.58 7.28 0 12.83 2.31 16.51 6.88 4.94 6.13 6.02 15.84 3.21 28.86l-6.91 32.38a4.59 4.59 0 0 1-4.46 3.61h-17.8Z"/><path d="M529.78 165.53c14.5 0 22.15 10.15 17.28 32.7l-6.91 32.39c-.2.95-1.04 1.63-2.02 1.63h-17.8a2.06 2.06 0 0 1-2.01-2.5l6.84-31.52c2.24-11.08.66-16.62-6.33-16.62-8.31 0-17.28 7.52-23.34 36.53l-2.56 12.46c-.2.96-1.04 1.65-2.02 1.65h-17.8c-1.31 0-2.29-1.21-2.02-2.49l12.97-61.29c.2-.95 1.04-1.63 2.02-1.63h17.81c1.31 0 2.29 1.21 2.02 2.49l-.69 3.23c-.3 1.42.83 2.49 2.03 2.49.51 0 1.04-.2 1.46-.64 6.01-6.26 13.31-8.88 21.06-8.88m.01-5c-7.15 0-13.71 2-19.29 5.84-.26-.68-.63-1.32-1.1-1.9a7.05 7.05 0 0 0-5.49-2.62h-17.81c-3.32 0-6.22 2.35-6.91 5.6l-12.97 61.29a7.068 7.068 0 0 0 6.91 8.53h17.8c3.34 0 6.24-2.37 6.92-5.64l2.56-12.46c5.62-26.89 13.13-32.54 18.44-32.54.83 0 1.5.14 1.67.34.15.18 1.42 2.03-.23 10.25l-6.83 31.49c-.46 2.1.06 4.26 1.4 5.93a7.04 7.04 0 0 0 5.5 2.63h17.8c3.31 0 6.21-2.35 6.91-5.59l6.91-32.39c2.98-13.78 1.74-24.2-3.71-30.94-4.12-5.11-10.5-7.81-18.46-7.81Z" class="cls-1"/><path d="M597.09 234.74c-2.33-.02-4.37-.03-6.27-.03s-3.54 0-5.25.01c-1.74 0-3.5.01-5.4.01-9.27 0-16.14-2.68-20.41-7.97-4.73-5.85-5.92-14.48-3.53-25.65l11.65-54.8c.44-2.09 2.32-3.61 4.46-3.61h17.81c1.38 0 2.68.62 3.55 1.69a4.54 4.54 0 0 1 .91 3.82L591.44 163h17.18c1.38 0 2.67.62 3.54 1.69s1.2 2.47.92 3.82l-2.55 11.97a4.59 4.59 0 0 1-4.46 3.61h-19l-3.8 17.67c-.52 2.52-1.07 7.18 1.17 9.93 1.31 1.61 3.56 2.43 6.67 2.43 1.53 0 2.59 0 3.6.01h5.01c1.42 0 2.72.62 3.6 1.72.87 1.09 1.19 2.49.88 3.85l-2.61 11.48a4.55 4.55 0 0 1-4.45 3.55h-.04Z"/><path d="M590.14 145.2c1.31 0 2.29 1.21 2.01 2.49l-3.28 15.32a2.06 2.06 0 0 0 2.01 2.49h17.72c1.31 0 2.29 1.21 2.02 2.49l-2.55 11.97c-.2.95-1.04 1.63-2.02 1.63H586.7c-.97 0-1.81.68-2.01 1.63l-3.87 18.02c-1.45 6.99-.39 15.38 10.29 15.38 2.9 0 4.11.02 6.47.02h2.15c1.32 0 2.32 1.23 2.02 2.52l-2.61 11.48c-.21.94-1.06 1.6-2.02 1.6h-.02c-2.35-.02-4.4-.03-6.31-.03-3.68 0-6.86.02-10.64.02-17.54 0-25.85-10.29-21.5-30.59l11.65-54.81c.2-.95 1.04-1.63 2.02-1.63h17.81m.01-5h-17.81c-3.31 0-6.22 2.35-6.91 5.59l-11.65 54.81c-2.56 11.93-1.2 21.26 4.03 27.73 4.78 5.91 12.3 8.9 22.36 8.9 1.91 0 3.66 0 5.41-.01 1.71 0 3.41-.01 5.23-.01s3.94 0 6.27.03h.06c3.32 0 6.16-2.26 6.89-5.49l2.61-11.48c.48-2.1-.02-4.28-1.37-5.96a7.05 7.05 0 0 0-5.53-2.66h-5.02c-1.01 0-2.08-.01-3.61-.01-2.33 0-3.92-.51-4.73-1.51-1.14-1.4-1.39-4.34-.66-7.86l3.36-15.66h16.97c3.31 0 6.22-2.35 6.91-5.59l2.55-11.97c.45-2.09-.07-4.25-1.42-5.91a7.05 7.05 0 0 0-5.49-2.62h-14.08l2.52-11.77c.45-2.1-.07-4.25-1.41-5.92a7.02 7.02 0 0 0-5.49-2.62Z" class="cls-1"/><path d="M612.6 234.75c-1.37 0-2.65-.61-3.52-1.67a4.56 4.56 0 0 1-.94-3.8l2.33-11.5a4.58 4.58 0 0 1 4.47-3.66h20.6c9.13 0 9.81-1.04 10.22-2.88.17-.76.04-1.03-.08-1.22-.32-.47-1.6-1.66-6.59-2.49l-.68-.12c-4.4-.75-14.72-2.49-19.56-9.94-2.62-4.04-3.19-9.06-1.69-14.92 3.59-13.85 15.67-20.87 35.92-20.87 10.36 0 17.31 1.75 20.52 2.8 2.22.72 3.53 3 3.04 5.3l-2.33 10.85c-.45 2.09-2.32 3.61-4.45 3.61-.4 0-.81-.05-1.2-.16-5.43-1.49-10.7-2.48-18.75-2.48-6.45 0-6.97.8-7.34 2.22-.05.22-.07.37-.07.45.39.36 1.86 1.08 7.12 2.14l.46.09c5.19 1.01 14.87 2.9 19.52 10.18 2.71 4.24 3.29 9.62 1.74 15.98-4.82 19.79-23.49 22.08-37.11 22.08-7.78 0-17.2 0-21.62.01Z"/><path d="M653.09 164.19c8.44 0 15.27 1.22 19.75 2.67 1.01.33 1.59 1.36 1.37 2.39l-2.33 10.85a2.06 2.06 0 0 1-2.55 1.56c-5.57-1.53-11.08-2.57-19.41-2.57-5.93 0-8.83.53-9.76 4.09-.66 2.77.53 3.96 8.97 5.67 7.39 1.45 24.4 4.35 19.78 23.21-3.69 15.16-16.49 20.18-34.68 20.18-7.78 0-17.21 0-21.62.01-1.3 0-2.27-1.19-2.01-2.47l2.33-11.5c.19-.96 1.04-1.65 2.02-1.65h20.6c8.57 0 11.74-.74 12.66-4.83.53-2.37 0-5.28-8.71-6.73-5.27-.92-24.66-3.43-19.91-21.89 3.69-14.24 16.88-18.99 33.5-18.99m0-5c-9.84 0-17.64 1.54-23.86 4.7-7.49 3.81-12.36 9.88-14.48 18.04-1.69 6.57-1.01 12.26 2.01 16.91 5.44 8.37 16.51 10.25 21.24 11.05l.64.11c2.23.37 3.53.8 4.26 1.11-.88.27-2.9.52-7.35.52h-20.6c-3.35 0-6.26 2.38-6.92 5.66l-2.33 11.5a7.08 7.08 0 0 0 1.45 5.88 7.01 7.01 0 0 0 5.45 2.58c4.42 0 13.85-.01 21.62-.01 10.58 0 18.8-1.63 25.12-4.98 7.46-3.96 12.31-10.35 14.42-19.01 1.73-7.05 1.03-13.08-2.06-17.92-5.14-8.03-15.21-10.13-20.84-11.23 7.24.08 12.12 1.01 17.14 2.39.61.17 1.23.25 1.86.25 3.3 0 6.2-2.35 6.9-5.58l2.33-10.85a7.044 7.044 0 0 0-4.71-8.2c-5.8-1.88-13.36-2.92-21.3-2.92Z" class="cls-1"/><path d="M724.74 234.75c-1.38 0-2.68-.62-3.54-1.69a4.58 4.58 0 0 1-.92-3.82l6.72-31.53c1.7-7.93.86-11.08-.15-12.33-.25-.31-1.02-1.26-3.6-1.26-3.82 0-13.96 0-23 44.16l-.58 2.84a4.57 4.57 0 0 1-4.47 3.64h-17.8c-1.38 0-2.67-.62-3.54-1.69s-1.2-2.47-.92-3.82l19.3-90.83c.44-2.09 2.32-3.61 4.46-3.61h17.81c1.38 0 2.67.62 3.54 1.69s1.21 2.46.92 3.81l-6.6 31.33c5.96-5.71 13.3-8.61 21.82-8.61 7.41 0 13.01 2.26 16.63 6.73 4.85 5.97 5.89 15.73 3.09 28.99l-6.91 32.4a4.59 4.59 0 0 1-4.46 3.61h-17.81Z"/><path d="M714.51 137.31c1.31 0 2.29 1.2 2.02 2.49l-6.91 32.8c-.3 1.42.83 2.49 2.03 2.49.51 0 1.04-.2 1.46-.64 6.01-6.28 13.32-8.91 21.08-8.91 15.16 0 22.02 10.15 17.28 32.7l-6.91 32.39c-.2.95-1.04 1.63-2.02 1.63h-17.81c-1.31 0-2.29-1.21-2.02-2.49l6.72-31.53c2.37-11.08.79-16.62-6.2-16.62-8.31 0-17.41 6.86-25.45 46.15l-.58 2.84c-.2.96-1.04 1.65-2.02 1.65h-17.8c-1.31 0-2.29-1.21-2.02-2.49l19.3-90.83c.2-.95 1.04-1.63 2.02-1.63h17.81m.02-5H696.7c-3.31 0-6.22 2.35-6.91 5.59l-19.3 90.83c-.44 2.09.07 4.25 1.42 5.91a7.05 7.05 0 0 0 5.49 2.62h17.8c3.34 0 6.24-2.37 6.92-5.64l.58-2.84c5.81-28.37 12.53-42.16 20.55-42.16.96 0 1.52.17 1.66.34.15.18 1.41 2.04-.35 10.23l-6.72 31.54c-.45 2.09.07 4.25 1.42 5.91s3.35 2.62 5.49 2.62h17.81c3.31 0 6.22-2.35 6.91-5.59l6.91-32.39c2.96-14.05 1.75-24.51-3.6-31.09-4.12-5.08-10.37-7.65-18.57-7.65-6.6 0-12.69 1.7-17.97 4.98l5.2-24.68c.44-2.09-.08-4.24-1.43-5.9a7.04 7.04 0 0 0-5.48-2.61Z" class="cls-1"/><path d="M884.32 234.73c-2.34-.02-4.39-.03-6.31-.03s-3.52 0-5.23.01c-1.74 0-3.49.01-5.39.01-9.27 0-16.14-2.68-20.41-7.97-4.73-5.85-5.92-14.48-3.53-25.64l11.65-54.81c.44-2.09 2.32-3.61 4.46-3.61h17.81c1.38 0 2.68.62 3.55 1.69a4.54 4.54 0 0 1 .91 3.82l-3.17 14.79h17.18c1.38 0 2.67.62 3.54 1.69s1.2 2.47.92 3.82l-2.55 11.97a4.59 4.59 0 0 1-4.46 3.61h-19l-3.8 17.67c-.52 2.52-1.07 7.18 1.17 9.93 1.31 1.61 3.56 2.43 6.67 2.43 1.53 0 2.59 0 3.6.01h5.01c1.42 0 2.72.62 3.6 1.72.87 1.09 1.19 2.49.88 3.85l-2.61 11.48a4.55 4.55 0 0 1-4.46 3.55h-.04Z"/><path d="M877.37 145.19c1.31 0 2.29 1.21 2.01 2.49L876.1 163a2.06 2.06 0 0 0 2.01 2.49h17.72c1.31 0 2.29 1.21 2.02 2.49l-2.55 11.97c-.2.95-1.04 1.63-2.02 1.63h-19.35c-.97 0-1.81.68-2.01 1.63l-3.87 18.02c-1.45 6.99-.39 15.38 10.29 15.38 2.9 0 4.11.02 6.47.02h2.15c1.32 0 2.32 1.23 2.02 2.52l-2.61 11.48c-.21.94-1.06 1.6-2.02 1.6h-.02c-2.35-.02-4.4-.03-6.31-.03-3.68 0-6.86.02-10.64.02-17.54 0-25.85-10.29-21.5-30.59l11.65-54.81c.2-.95 1.04-1.63 2.02-1.63h17.81m.01-5h-17.81c-3.31 0-6.22 2.35-6.91 5.59L841 200.59c-2.56 11.93-1.2 21.26 4.03 27.73 4.78 5.91 12.3 8.9 22.36 8.9 1.91 0 3.66 0 5.41-.01 1.71 0 3.41-.01 5.23-.01s3.94 0 6.27.03h.06c3.32 0 6.16-2.26 6.89-5.49l2.61-11.48c.48-2.1-.02-4.28-1.37-5.96a7.05 7.05 0 0 0-5.53-2.66h-5.02c-1.01 0-2.08-.01-3.61-.01-2.33 0-3.92-.51-4.73-1.51-1.14-1.4-1.39-4.34-.66-7.86l3.36-15.66h16.97c3.31 0 6.22-2.35 6.91-5.59l2.55-11.97c.45-2.09-.07-4.25-1.42-5.91a7.05 7.05 0 0 0-5.49-2.62h-14.08l2.52-11.77c.45-2.09-.07-4.25-1.41-5.92a7.02 7.02 0 0 0-5.49-2.62Z" class="cls-1"/><path d="M792.35 236.07c-12.88 0-22.27-3.52-27.89-10.46-5.48-6.77-7.03-16.69-4.49-28.69 3.42-16.38 17.16-33.89 45.43-33.89 12.98 0 22.41 3.52 28.04 10.45 5.54 6.84 7.05 16.49 4.48 28.7-2.1 9.62-7.09 17.85-14.45 23.81-.06.05-.12.11-.19.16-8.13 6.5-18.82 9.93-30.93 9.93Zm-6.81-33.59c3.89 1.55 6.57 5.09 7 9.25l.9 8.62 6.31-11.69c1.36-2.52 3.61-4.41 6.33-5.31l12.46-4.14-7.73-3.08a11.16 11.16 0 0 1-7-9.25l-.9-8.62-6.31 11.69a11.16 11.16 0 0 1-6.33 5.31l-12.46 4.14z"/><path d="M805.41 165.53c25.58 0 34.68 14.24 30.07 36.13-1.9 8.72-6.48 16.66-13.64 22.44-.04.05-.1.08-.14.12-7.22 5.77-17.03 9.35-29.34 9.35-25.45 0-34.55-14.37-29.94-36.13 3.69-17.67 18.59-31.91 42.99-31.91m-12.65 59.76c.49 0 .98-.24 1.27-.76l7.92-14.68a8.7 8.7 0 0 1 4.92-4.13l15.19-5.05c1.28-.43 1.34-2.22.08-2.73l-10.4-4.14a8.7 8.7 0 0 1-5.44-7.19l-1.25-12c-.09-.83-.77-1.3-1.46-1.3-.49 0-.98.24-1.27.76l-7.92 14.68a8.7 8.7 0 0 1-4.92 4.13l-15.19 5.05c-1.28.43-1.34 2.23-.08 2.73l10.4 4.14a8.7 8.7 0 0 1 5.44 7.19l1.25 12c.09.83.77 1.3 1.46 1.3m12.65-64.76c-12.63 0-23.82 3.6-32.38 10.42-8 6.38-13.36 15.18-15.51 25.47-2.7 12.75-.98 23.39 4.99 30.77 6.12 7.56 16.16 11.39 29.84 11.39 12.69 0 23.91-3.61 32.46-10.45l.1-.08c.05-.05.11-.1.17-.15 7.78-6.32 13.06-15.02 15.27-25.17 2.74-13.01 1.07-23.37-4.97-30.82-6.12-7.55-16.21-11.38-29.98-11.38Zm-20.31 39.09 5.96-1.98c3.33-1.11 6.08-3.41 7.74-6.5l2.46-4.56.06.56c.53 5.09 3.81 9.42 8.57 11.32l1.36.54-5.96 1.98a13.63 13.63 0 0 0-7.74 6.5l-2.46 4.56-.06-.56c-.53-5.09-3.81-9.42-8.57-11.32z" class="cls-1"/></svg>