<svg xmlns="http://www.w3.org/2000/svg" width="73" height="73" fill="none" viewBox="0 0 73 73"><path fill="#be4200" d="M35.517.865c.137-1.153 1.81-1.153 1.948 0l1.148 9.676c1.483 12.495 11.333 22.346 23.828 23.828l9.676 1.148c1.153.137 1.153 1.81 0 1.948l-9.676 1.148c-12.495 1.483-22.345 11.333-23.828 23.828l-1.148 9.676c-.137 1.153-1.81 1.153-1.948 0L34.37 62.44c-1.482-12.495-11.333-22.345-23.828-23.828L.865 37.465c-1.153-.137-1.153-1.81 0-1.948l9.676-1.148c12.495-1.482 22.346-11.333 23.828-23.828z"/></svg>