<svg width="73" height="73" viewBox="0 0 73 73" fill="none" xmlns="http://www.w3.org/2000/svg">
<path d="M35.5172 0.865062C35.6542 -0.288354 37.3279 -0.288354 37.4649 0.865062L38.613 10.5412C40.0955 23.0357 49.9464 32.8866 62.4408 34.3691L72.1169 35.5172C73.2705 35.6542 73.2705 37.3279 72.1169 37.4649L62.4408 38.613C49.9464 40.0955 40.0955 49.9464 38.613 62.4408L37.4649 72.1169C37.3279 73.2705 35.6542 73.2705 35.5172 72.1169L34.3691 62.4408C32.8866 49.9464 23.0357 40.0955 10.5412 38.613L0.865062 37.4649C-0.288354 37.3279 -0.288354 35.6542 0.865062 35.5172L10.5412 34.3691C23.0357 32.8866 32.8866 23.0357 34.3691 10.5412L35.5172 0.865062Z" fill="#BE4200"/>
</svg>
