<svg width="1440" height="51" viewBox="0 0 1440 51" fill="none" xmlns="http://www.w3.org/2000/svg">
<path d="M119.99 51H0V0C8.10083 1.28378e-05 15.1657 1.85875 21.5977 5.67871C27.0508 8.91763 31.1824 13.0085 35.1777 16.9648L35.1914 16.9785C42.3757 24.0901 48.0497 29.707 60 29.707C71.9531 29.707 77.6301 24.0876 84.8135 16.9736L84.8223 16.9648C88.8176 13.0086 92.9492 8.91761 98.4023 5.67871C104.831 1.8588 111.899 0 120 0L119.99 51ZM239.99 51H120V0C128.101 1.28378e-05 135.166 1.85875 141.598 5.67871C147.051 8.91763 151.182 13.0085 155.178 16.9648L155.191 16.9785C162.376 24.0901 168.05 29.707 180 29.707C191.953 29.707 197.63 24.0876 204.813 16.9736L204.822 16.9648C208.818 13.0086 212.949 8.91761 218.402 5.67871C224.831 1.8588 231.899 0 240 0L239.99 51ZM359.99 51H240V0C248.101 1.28378e-05 255.166 1.85875 261.598 5.67871C267.051 8.91763 271.182 13.0085 275.178 16.9648L275.191 16.9785C282.376 24.0901 288.05 29.707 300 29.707C311.953 29.707 317.63 24.0876 324.813 16.9736L324.822 16.9648C328.818 13.0086 332.949 8.91761 338.402 5.67871C344.831 1.8588 351.899 0 360 0L359.99 51ZM479.99 51H360V0C368.101 1.28378e-05 375.166 1.85875 381.598 5.67871C387.051 8.91763 391.182 13.0085 395.178 16.9648L395.191 16.9785C402.376 24.0901 408.05 29.707 420 29.707C431.953 29.707 437.63 24.0876 444.813 16.9736L444.822 16.9648C448.818 13.0086 452.949 8.91761 458.402 5.67871C464.831 1.8588 471.899 0 480 0L479.99 51ZM599.99 51H480V0C488.101 1.28378e-05 495.166 1.85875 501.598 5.67871C507.051 8.91763 511.182 13.0085 515.178 16.9648L515.191 16.9785C522.376 24.0901 528.05 29.707 540 29.707C551.953 29.707 557.63 24.0876 564.813 16.9736L564.822 16.9648C568.818 13.0086 572.949 8.91761 578.402 5.67871C584.831 1.8588 591.899 0 600 0L599.99 51ZM719.99 51H600V0C608.101 1.28378e-05 615.166 1.85875 621.598 5.67871C627.051 8.91763 631.182 13.0085 635.178 16.9648L635.191 16.9785C642.376 24.0901 648.05 29.707 660 29.707C671.953 29.707 677.63 24.0876 684.813 16.9736L684.822 16.9648C688.818 13.0086 692.949 8.91761 698.402 5.67871C704.831 1.8588 711.899 0 720 0L719.99 51ZM839.99 51H720V0C728.101 1.28378e-05 735.166 1.85875 741.598 5.67871C747.051 8.91763 751.182 13.0085 755.178 16.9648L755.191 16.9785C762.376 24.0901 768.05 29.707 780 29.707C791.953 29.707 797.63 24.0876 804.813 16.9736L804.822 16.9648C808.818 13.0086 812.949 8.91761 818.402 5.67871C824.831 1.8588 831.899 0 840 0L839.99 51ZM959.99 51H840V0C848.101 1.28378e-05 855.166 1.85875 861.598 5.67871C867.051 8.91763 871.182 13.0085 875.178 16.9648L875.191 16.9785C882.376 24.0901 888.05 29.707 900 29.707C911.953 29.707 917.63 24.0876 924.813 16.9736L924.822 16.9648C928.818 13.0086 932.949 8.91761 938.402 5.67871C944.831 1.8588 951.899 0 960 0L959.99 51ZM1079.99 51H960V0C968.101 1.28378e-05 975.166 1.85875 981.598 5.67871C987.051 8.91763 991.182 13.0085 995.178 16.9648L995.191 16.9785C1002.38 24.0901 1008.05 29.707 1020 29.707C1031.95 29.707 1037.63 24.0876 1044.81 16.9736L1044.82 16.9648C1048.82 13.0086 1052.95 8.91761 1058.4 5.67871C1064.83 1.8588 1071.9 0 1080 0L1079.99 51ZM1199.99 51H1080V0C1088.1 1.28378e-05 1095.17 1.85875 1101.6 5.67871C1107.05 8.91763 1111.18 13.0085 1115.18 16.9648L1115.19 16.9785C1122.38 24.0901 1128.05 29.707 1140 29.707C1151.95 29.707 1157.63 24.0876 1164.81 16.9736L1164.82 16.9648C1168.82 13.0086 1172.95 8.91761 1178.4 5.67871C1184.83 1.8588 1191.9 0 1200 0L1199.99 51ZM1319.99 51H1200V0C1208.1 1.28378e-05 1215.17 1.85875 1221.6 5.67871C1227.05 8.91763 1231.18 13.0085 1235.18 16.9648L1235.19 16.9785C1242.38 24.0901 1248.05 29.707 1260 29.707C1271.95 29.707 1277.63 24.0876 1284.81 16.9736L1284.82 16.9648C1288.82 13.0086 1292.95 8.91761 1298.4 5.67871C1304.83 1.8588 1311.9 0 1320 0L1319.99 51ZM1439.99 51H1320V0C1328.1 1.28378e-05 1335.17 1.85875 1341.6 5.67871C1347.05 8.91763 1351.18 13.0085 1355.18 16.9648L1355.19 16.9785C1362.38 24.0901 1368.05 29.707 1380 29.707C1391.95 29.707 1397.63 24.0876 1404.81 16.9736L1404.82 16.9648C1408.82 13.0086 1412.95 8.91761 1418.4 5.67871C1424.83 1.8588 1431.9 0 1440 0L1439.99 51Z" fill="#FFC7AA"/>
</svg>
