<svg xmlns="http://www.w3.org/2000/svg" width="1440" height="51" fill="none" viewBox="0 0 1440 51"><path fill="#ffc7aa" d="M119.99 51H0V0c8.1 0 15.166 1.859 21.598 5.679 5.453 3.239 9.584 7.33 13.58 11.286l.013.014C42.376 24.09 48.05 29.707 60 29.707c11.953 0 17.63-5.62 24.814-12.733l.008-.01c3.996-3.955 8.127-8.046 13.58-11.285C104.831 1.859 111.9 0 120 0zm120 0H120V0c8.101 0 15.166 1.859 21.598 5.679 5.453 3.239 9.584 7.33 13.58 11.286l.013.014C162.376 24.09 168.05 29.707 180 29.707c11.953 0 17.63-5.62 24.813-12.733l.009-.01c3.996-3.955 8.127-8.046 13.58-11.285C224.831 1.859 231.899 0 240 0zm120 0H240V0c8.101 0 15.166 1.859 21.598 5.679 5.453 3.239 9.584 7.33 13.58 11.286l.013.014C282.376 24.09 288.05 29.707 300 29.707c11.953 0 17.63-5.62 24.813-12.733l.009-.01c3.996-3.955 8.127-8.046 13.58-11.285C344.831 1.859 351.899 0 360 0zm120 0H360V0c8.101 0 15.166 1.859 21.598 5.679 5.453 3.239 9.584 7.33 13.58 11.286l.013.014C402.376 24.09 408.05 29.707 420 29.707c11.953 0 17.63-5.62 24.813-12.733l.009-.01c3.996-3.955 8.127-8.046 13.58-11.285C464.831 1.859 471.899 0 480 0zm120 0H480V0c8.101 0 15.166 1.859 21.598 5.679 5.453 3.239 9.584 7.33 13.58 11.286l.013.014C522.376 24.09 528.05 29.707 540 29.707c11.953 0 17.63-5.62 24.813-12.733l.009-.01c3.996-3.955 8.127-8.046 13.58-11.285C584.831 1.859 591.899 0 600 0zm120 0H600V0c8.101 0 15.166 1.859 21.598 5.679 5.453 3.239 9.584 7.33 13.58 11.286l.013.014C642.376 24.09 648.05 29.707 660 29.707c11.953 0 17.63-5.62 24.813-12.733l.009-.01c3.996-3.955 8.127-8.046 13.58-11.285C704.831 1.859 711.899 0 720 0zm120 0H720V0c8.101 0 15.166 1.859 21.598 5.679 5.453 3.239 9.584 7.33 13.58 11.286l.013.014C762.376 24.09 768.05 29.707 780 29.707c11.953 0 17.63-5.62 24.813-12.733l.009-.01c3.996-3.955 8.127-8.046 13.58-11.285C824.831 1.859 831.899 0 840 0zm120 0H840V0c8.101 0 15.166 1.859 21.598 5.679 5.453 3.239 9.584 7.33 13.58 11.286l.013.014C882.376 24.09 888.05 29.707 900 29.707c11.953 0 17.63-5.62 24.813-12.733l.009-.01c3.996-3.955 8.127-8.046 13.58-11.285C944.831 1.859 951.899 0 960 0zm120 0H960V0c8.101 0 15.166 1.859 21.598 5.679 5.453 3.239 9.584 7.33 13.58 11.286l.013.014c7.189 7.111 12.859 12.728 24.809 12.728s17.63-5.62 24.81-12.733l.01-.01c4-3.955 8.13-8.046 13.58-11.285C1064.83 1.859 1071.9 0 1080 0zm120 0H1080V0c8.1 0 15.17 1.859 21.6 5.679 5.45 3.239 9.58 7.33 13.58 11.286l.01.014c7.19 7.111 12.86 12.728 24.81 12.728s17.63-5.62 24.81-12.733l.01-.01c4-3.955 8.13-8.046 13.58-11.285C1184.83 1.859 1191.9 0 1200 0zm120 0H1200V0c8.1 0 15.17 1.859 21.6 5.679 5.45 3.239 9.58 7.33 13.58 11.286l.01.014c7.19 7.111 12.86 12.728 24.81 12.728s17.63-5.62 24.81-12.733l.01-.01c4-3.955 8.13-8.046 13.58-11.285C1304.83 1.859 1311.9 0 1320 0zm120 0H1320V0c8.1 0 15.17 1.859 21.6 5.679 5.45 3.239 9.58 7.33 13.58 11.286l.01.014c7.19 7.111 12.86 12.728 24.81 12.728s17.63-5.62 24.81-12.733l.01-.01c4-3.955 8.13-8.046 13.58-11.285C1424.83 1.859 1431.9 0 1440 0z"/></svg>