<svg width="24" height="25" viewBox="0 0 24 25" fill="none" xmlns="http://www.w3.org/2000/svg">
<path d="M16.5 7.54681C17.0304 7.54681 17.5391 7.75753 17.9142 8.1326C18.2893 8.50767 18.5 9.01638 18.5 9.54681C18.5 9.01638 18.7107 8.50767 19.0858 8.1326C19.4609 7.75753 19.9696 7.54681 20.5 7.54681C19.9696 7.54681 19.4609 7.3361 19.0858 6.96103C18.7107 6.58595 18.5 6.07725 18.5 5.54681C18.5 6.07725 18.2893 6.58595 17.9142 6.96103C17.5391 7.3361 17.0304 7.54681 16.5 7.54681ZM9.5 19.5468C9.5 17.9555 10.1321 16.4294 11.2574 15.3042C12.3826 14.179 13.9087 13.5468 15.5 13.5468C13.9087 13.5468 12.3826 12.9147 11.2574 11.7895C10.1321 10.6642 9.5 9.13811 9.5 7.54681C9.5 9.13811 8.86786 10.6642 7.74264 11.7895C6.61742 12.9147 5.0913 13.5468 3.5 13.5468C5.0913 13.5468 6.61742 14.179 7.74264 15.3042C8.86786 16.4294 9.5 17.9555 9.5 19.5468Z" stroke="#6B81FF" stroke-width="2" stroke-linecap="round" stroke-linejoin="round"/>
</svg>
