<?xml version="1.0" encoding="utf-8"?>
<svg xmlns="http://www.w3.org/2000/svg" fill="none" height="100%" overflow="visible" preserveAspectRatio="none" style="display: block;" viewBox="0 0 20 20" width="100%">
<g id="Vector">
<path clip-rule="evenodd" d="M20 2.5C20 1.1202 18.8798 0 17.5 0H2.5C1.1202 0 0 1.1202 0 2.5V17.5C0 18.8798 1.1202 20 2.5 20H17.5C18.8798 20 20 18.8798 20 17.5V2.5Z" fill="#0026FF" fill-rule="evenodd"/>
<path d="M5.73525 6.97835H2.38525V17.055H5.73525V6.97835Z" fill="var(--fill-0, #F8F5EE)"/>
<path d="M4.0825 2.11995C2.93637 2.11995 2.1875 2.87347 2.1875 3.86109C2.1875 4.82796 2.91359 5.60226 4.03816 5.60226H4.0598C5.22789 5.60226 5.95496 4.82796 5.95496 3.86109C5.93328 2.87347 5.22797 2.11995 4.0825 2.11995Z" fill="var(--fill-0, #F8F5EE)"/>
<path d="M13.9556 6.74154C12.1787 6.74154 11.3827 7.71876 10.937 8.40517V6.97849H7.58789C7.6323 7.92368 7.58789 17.0551 7.58789 17.0551H10.937V11.4276C10.937 11.1264 10.9586 10.8252 11.0474 10.61C11.2891 10.0084 11.8406 9.38529 12.7659 9.38529C13.9773 9.38529 14.4626 10.3097 14.4626 11.6637V17.0551H17.8119V11.2766C17.8119 8.18138 16.1593 6.74154 13.9556 6.74154Z" fill="var(--fill-0, #F8F5EE)"/>
</g>
</svg>