<svg preserveAspectRatio="none" width="100%" height="100%" overflow="visible" style="display: block;" viewBox="0 0 61 27" fill="none" xmlns="http://www.w3.org/2000/svg">
<g id="Beta Pill">
<path id="Rectangle 18 (Stroke)" d="M47.5905 25.6765V27H13.4095V25.6765H47.5905ZM59.6853 13.5C59.6853 6.77512 54.2703 1.32353 47.5905 1.32353H13.4095C6.72969 1.32353 1.31466 6.77512 1.31466 13.5C1.31466 20.2249 6.72969 25.6765 13.4095 25.6765V27C6.00363 27 0 20.9558 0 13.5C0 6.04416 6.00363 2.04647e-07 13.4095 0H47.5905L47.9366 0.00465303C55.1825 0.189482 61 6.16066 61 13.5C61 20.8393 55.1825 26.8105 47.9366 26.9953L47.5905 27V25.6765C54.2703 25.6765 59.6853 20.2249 59.6853 13.5Z" fill="var(--fill-0, #000AFF)"/>
<g id="BETA">
<path id="Vector" d="M39.4763 18.6978L43.4212 8.14617H44.7604L40.9902 18.6978H39.4763ZM47.5844 18.6978L43.8142 8.14617H45.2262L49.1857 18.6978H47.5844ZM41.4706 14.4918H47.0895V15.7815H41.4706V14.4918Z" fill="var(--fill-0, #000AFF)"/>
<path id="Vector_2" d="M34.7869 18.6978V9.42116H31.2496V8.14617H39.8672V9.42116H36.3299V18.6978H34.7869Z" fill="var(--fill-0, #000AFF)"/>
<path id="Vector_3" d="M22.3688 18.6978V8.14617H23.9119V18.6978H22.3688ZM23.1258 18.6978V17.4228H29.6472V18.6978H23.1258ZM23.1258 13.8763V12.6013H29.1232V13.8763H23.1258ZM23.1258 9.42116V8.14617H29.5162V9.42116H23.1258Z" fill="var(--fill-0, #000AFF)"/>
<path id="Vector_4" d="M13.7561 18.6979V17.4962H16.8858C17.4778 17.4962 17.9387 17.335 18.2687 17.0126C18.6083 16.6902 18.7782 16.2505 18.7782 15.6936C18.7782 15.1074 18.5986 14.6385 18.2396 14.2868C17.8902 13.935 17.4098 13.7592 16.7984 13.7592H13.7561V12.5868H16.6529C17.2449 12.5868 17.701 12.4451 18.0212 12.1618C18.3512 11.8687 18.5162 11.4534 18.5162 10.9161C18.5162 10.408 18.3609 10.0221 18.0503 9.75834C17.7495 9.48477 17.3031 9.34799 16.7111 9.34799H13.7561V8.14628H16.944C17.8951 8.14628 18.652 8.38076 19.2149 8.84972C19.7777 9.30891 20.0592 9.93908 20.0592 10.7402C20.0592 11.2483 19.9427 11.6977 19.7098 12.0885C19.4866 12.4695 19.1761 12.7675 18.7782 12.9825C18.3803 13.1876 17.929 13.2902 17.4244 13.2902L17.4972 12.9825C18.0406 12.9825 18.5259 13.1095 18.9529 13.3635C19.3799 13.6077 19.7195 13.9448 19.9718 14.3747C20.2242 14.8046 20.3503 15.3028 20.3503 15.8695C20.3503 16.4264 20.2144 16.9198 19.9427 17.3497C19.6807 17.7795 19.3071 18.1117 18.8218 18.3462C18.3366 18.5807 17.7738 18.6979 17.1333 18.6979H13.7561ZM12.6206 18.6979V8.14628H14.1637V18.6979H12.6206Z" fill="var(--fill-0, #000AFF)"/>
</g>
</g>
</svg>
