<svg width="132" height="121" viewBox="0 0 132 121" fill="none" xmlns="http://www.w3.org/2000/svg">
<g id="software-landing-page">
<g id="orbs+stars">
<circle id="Ellipse 10" cx="47.644" cy="92.8211" r="27.6291" transform="rotate(-90 47.644 92.8211)" fill="#A5B2FF"/>
<path id="Ellipse 9" d="M39.4189 54.9668C39.4191 35.2745 55.2875 19.3301 74.8379 19.3301C94.3883 19.3301 110.257 35.2745 110.257 54.9668C110.257 74.6592 94.3883 90.6035 74.8379 90.6035C55.2875 90.6035 39.4189 74.6592 39.4189 54.9668Z" stroke="#BE4200" stroke-width="4"/>
<path id="Soft Star" d="M0.237237 44.5856C-0.0790789 44.5464 -0.0790789 44.0674 0.237237 44.0282L2.89084 43.6997C6.31736 43.2754 9.0189 40.4564 9.42547 36.881L9.74033 34.112C9.7779 33.7819 10.2369 33.7819 10.2745 34.112L10.5893 36.881C10.9959 40.4564 13.6974 43.2754 17.1239 43.6997L19.7775 44.0282C20.0939 44.0674 20.0939 44.5464 19.7775 44.5856L17.1239 44.9141C13.6974 45.3384 10.9959 48.1574 10.5893 51.7329L10.2745 54.5018C10.2369 54.8319 9.7779 54.8319 9.74033 54.5018L9.42547 51.7329C9.0189 48.1574 6.31736 45.3384 2.89084 44.9141L0.237237 44.5856Z" fill="#FFC7AA"/>
<path id="Soft Star_2" d="M105.56 13.3412C105.149 13.2924 105.149 12.6964 105.56 12.6476L109.005 12.2388C113.454 11.7109 116.962 8.20296 117.49 3.75373L117.899 0.308073C117.948 -0.102705 118.544 -0.102705 118.593 0.308073L119.002 3.75373C119.529 8.20296 123.037 11.7109 127.487 12.2388L130.932 12.6476C131.343 12.6964 131.343 13.2924 130.932 13.3412L127.487 13.75C123.037 14.2779 119.529 17.7859 119.002 22.2351L118.593 25.6808C118.544 26.0915 117.948 26.0915 117.899 25.6808L117.49 22.2351C116.962 17.7859 113.454 14.2779 109.005 13.75L105.56 13.3412Z" fill="#BE4200"/>
</g>
</g>
</svg>
