<svg preserveAspectRatio="none" width="100%" height="100%" overflow="visible" style="display: block;" viewBox="0 0 304 167" fill="none" xmlns="http://www.w3.org/2000/svg">
<g id="image 24 [Vectorized]">
<path id="Vector" d="M144.643 57.333C143.477 56.414 142.728 55.8229 142.354 54.2539C141.775 51.8236 142.876 49.0382 143.209 46.645C143.57 44.0552 143.108 40.9121 144.483 38.5525C145.91 36.1944 149.702 35.0155 152.189 34.3798C156.467 33.2864 161.027 34.8681 163.899 38.1529C164.886 39.2826 166.232 40.2819 166.549 41.8737C166.66 42.4289 166.535 42.5898 166.256 43.0217C165.313 43.6224 164.275 43.4645 163.153 43.4358L163.03 43.5636C163.2 44.7826 163.336 46.0741 163.818 47.2082C165.159 50.3563 167.659 52.2852 165.258 55.6859C168.98 56.9321 170.415 58.2117 171.404 62.1237C172.172 65.1607 172.477 68.1611 173.081 71.2311C174.805 79.5441 176.214 87.9191 177.304 96.338C177.606 98.6877 178.751 102.281 177.784 104.504C177.019 106.26 172.86 105.458 172.525 103.916C173.169 103.166 175.688 104.67 176.945 103.981C177.059 101.874 166.063 95.8745 163.53 97.6694C163.392 97.7671 163.488 98.3963 162.985 98.672C161.63 97.9258 162.398 94.5361 162.622 93.1975C163.725 86.6239 162.887 80.0608 162.489 73.4725C162.406 72.1173 161.484 66.1848 162.544 65.4392L162.832 65.6198C163.373 66.3307 163.58 78.7483 164.011 81.1294C164.017 81.5606 164.001 82.0036 164.263 82.2908C164.628 81.9101 164.843 81.1598 165.035 80.6357C165.326 79.3322 166.039 77.1521 167.03 76.2278L167.213 76.2521C167.554 78.7263 165.234 83.13 164.585 85.6376C163.942 88.1211 164.065 90.6951 163.774 93.2404C163.701 93.8761 163.257 95.9874 163.394 96.364C170.177 96.642 171.439 97.584 177.11 101.757C175.663 92.7299 174.147 83.7131 172.566 74.7077C172.044 71.7874 170.61 61.962 169.169 59.9432C166.772 58.6173 165.056 62.6434 163.422 62.1913L163.472 62.299L163.724 62.3296L163.44 62.0317C164.017 60.664 165.523 59.3279 166.875 58.7786C167.288 58.6143 167.71 58.4762 168.141 58.3651C166.82 57.3535 165.97 56.9756 164.42 56.3551C163.665 56.5828 163.235 56.7574 162.513 57.0879C161.59 57.5117 159.665 59.7582 158.813 59.3539C157.955 57.6313 163.349 55.606 164.359 55.0143C164.938 53.8556 165.3 53.1634 164.768 51.9117C163.244 48.3337 160.915 43.3155 161.029 39.3475C163.102 41.5053 161.386 42.405 164.612 42.4817C164.859 42.4876 164.976 42.4626 165.223 42.3577C165.282 42.2785 165.464 42.0918 165.422 42.0026C162.792 36.2905 154.861 33.2923 149.293 36.8085C150.097 37.214 152.745 38.5057 153.319 38.9798C156.365 41.4915 158.28 44.7962 159.433 48.5445C160.067 50.6068 160.948 53.3741 159.827 55.4758C158.413 58.1262 154.609 59.0385 152.79 61.4451C152.474 61.8628 151.767 62.4346 151.247 62.4508C151.127 62.107 151.206 61.7708 151.409 61.4539C155.085 55.7646 161.332 57.9791 158.468 48.9913C156.938 44.1928 152.477 37.0362 146.491 38.2862C144.437 38.7149 144.742 45.3371 144.487 47.0871C144.159 49.3291 143.311 51.902 143.479 54.1083C143.864 56.6573 150.211 58.7077 149.957 61.0977L149.747 61.2799C148.909 61.0903 146.903 58.9486 145.625 58.1154C144.695 58.8467 143.908 59.413 143.169 60.3403L143.104 60.4202C142.784 60.8208 138.955 70.8419 138.903 71.3439C139.906 72.0287 140.807 71.9551 141.042 72.9588C140.289 73.6892 138.311 72.4318 137.145 73.3064C136.959 73.7577 136.944 73.6033 137.074 73.978C137.77 74.4986 138.613 75.1079 139.25 75.683C139.674 76.0663 140.211 77.8817 140.04 78.4628L139.741 78.5474C137.07 77.0223 139.392 73.9861 133.947 75.126C135.165 76.4873 137.113 80.7357 136.001 82.4179L135.763 82.3633C134.455 80.032 134.724 76.2566 131.886 75.2525C131.611 75.1554 130.494 74.9548 130.157 74.8913C132.692 79.3108 132.584 87.165 132.325 92.2313C132.28 93.1198 131.805 95.2057 131.934 95.6376C132.845 95.8044 134.551 93.5112 135.014 92.8491C135.879 91.6125 135.992 88.4423 136.953 87.6013C137.562 88.3931 136.808 90.7733 136.555 91.7305C140.572 88.2277 142.084 85.974 142.318 80.8418C142.425 78.5098 142.886 66.9588 143.799 65.6068L144.193 65.4866C145.052 66.2302 144.247 71.6927 144.164 73.0686C143.675 80.9723 143.059 88.8678 142.317 96.7519C141.953 100.842 141.664 104.971 141.288 109.061C140.419 118.509 140.609 128.939 136.611 137.749C145.192 135.792 144.94 140.287 152.165 141.856C156.195 142.731 159.556 138.405 163.923 138.671C167.445 138.885 169.002 140.594 171.893 141.731C174.59 142.792 185.341 144.93 187.484 143.368C187.645 142.908 187.653 143.096 187.462 142.662C185.815 141.262 182.737 140.487 181.039 138.544C180.388 137.798 178.953 136.658 178.358 135.705C173.359 127.704 171.561 119.301 170.275 110.093C170.208 109.602 170.285 108.961 170.456 108.519L170.726 108.371C171.933 109.082 172.296 115.957 172.677 117.641C173.777 122.509 176.099 130.444 178.945 134.553C180.226 136.421 181.889 137.997 183.824 139.179C185.098 139.959 188.421 141.373 188.725 142.596C188.9 143.297 188.575 143.266 189.16 143.78C190.6 144.21 194.117 143.798 195.2 144.433L195.238 144.695C194.111 145.646 183.607 145.248 181.65 145.266L147.283 145.27L126.959 145.272C125.448 145.273 116.37 145.486 115.597 144.921L115.533 144.585C116.236 143.558 121.47 144.304 122.645 143.787C122.515 141.489 123.556 137.177 124.023 134.676C126.958 118.956 119.798 104.177 119.86 88.5199C119.867 87.1374 119.099 82.3067 120.751 81.8601C121.221 82.5231 120.532 83.8356 122.243 84.6848C122.782 84.6418 122.593 84.7355 122.949 84.338C123.218 83.4541 122.879 82.7594 122.576 81.8714C123.077 81.3997 123.711 80.7669 124.224 80.3344C124.481 86.8157 124.603 94.0842 125.64 100.374C127.627 112.428 131.042 123.926 128.699 136.255C128.212 138.813 128.156 141.617 126.782 143.949L149.801 143.982C151.849 143.973 158.141 144.063 159.892 143.792C160.694 142.968 159.264 142.384 161.458 141.642L162.22 141.9C162.17 142.251 162.109 142.519 162.028 142.864C161.659 143.165 161.417 143.298 161.248 143.739C161.665 143.955 161.902 143.954 162.359 144.003C163.355 143.521 162.589 143.023 163.429 142.136C163.979 142.035 163.823 141.98 164.235 142.19L164.263 142.51C163.902 143.275 164.056 143.031 163.269 143.554L163.261 143.764C163.958 144.01 172.91 144.1 173.485 143.624L173.217 143.761L173.298 143.472C170.974 142.626 167.052 140.536 164.93 140.103C160.658 139.232 157.011 143.63 152.161 142.959C147.319 142.29 145.438 139.405 141.094 138.267C139.616 137.831 137.248 139.307 135.953 138.977C134.931 138.716 136.532 134.202 136.761 133.403C138.679 126.708 139.229 118.306 139.983 111.54C140.197 109.62 141.527 88.0565 141.566 88.1315C140.974 88.5677 139.696 90.7064 139.265 90.9716C137.022 92.3518 135.689 94.2341 133.788 95.9441C133.037 96.6188 131.428 97.2953 130.492 97.726C129.917 97.4501 129.344 97.1713 128.771 96.8894C127.323 94.0874 126.726 89.4133 126.657 86.2288C126.775 85.4328 126.682 83.524 127.013 82.988L127.3 83.1273C127.357 85.0428 128.505 96.1454 130.298 96.2086C132.561 94.0944 131.197 79.0252 129.559 76.271C129.043 75.4034 127.746 75.0724 127.438 74.3751L127.574 74.0779C128.36 73.5496 132.069 74.2005 133.206 74.1222C134.131 74.0586 134.913 73.8967 135.817 73.7155C136.245 72.6488 137.83 69.9111 138.537 68.4126C140.987 63.2215 140.03 60.8016 144.643 57.333ZM123.629 99.8802C123.139 100.136 122.606 100.33 122.364 100.802C122.112 103.943 124.192 110.92 124.83 114.308C126.131 121.216 126.493 127.358 125.493 134.344C125.107 137.041 124.568 139.373 123.97 142.02C123.731 143.079 124.309 143.37 125.176 143.73C127.209 143.268 126.779 139.303 127.113 137.678C129.692 125.14 126.888 113.21 124.475 100.951C124.406 100.602 124.311 100.278 124.081 99.9981L123.629 99.8802ZM121.83 96.9299C121.855 97.6035 121.822 98.4265 122.108 99.0179L122.35 99.1778C122.931 98.9526 123.49 98.8296 123.744 98.2944L123.782 98.2176C124.171 97.4026 124.068 96.8482 123.69 96.0632L123.401 95.9557L121.83 96.9299ZM121.194 88.1726C121.844 88.3505 122.532 88.526 123.169 88.7365C123.157 87.9541 123.17 86.9843 123.103 86.219C122.467 85.9404 121.839 85.6532 121.182 85.4285C121.178 86.3433 121.182 87.258 121.194 88.1726ZM121.945 95.5238L123.521 94.304C123.503 93.708 123.523 92.6956 123.334 92.1738L122.932 92.1051C121.675 92.7749 120.939 94.0371 121.68 95.4007L121.945 95.5238Z" fill="var(--fill-0, #EFEFF1)"/>
<path id="Vector_2" d="M146.862 20.3806C151.674 20.2332 157.415 20.6095 162.153 21.8765C171.428 24.3575 179.102 28.4881 185.555 35.7452C185.911 35.9778 186.657 37.6553 186.845 37.773C188.289 38.6799 192.679 46.6738 191.286 47.3283C190.803 47.2015 189.36 45.2455 188.841 44.6842C178.068 33.2084 162.323 27.7609 146.741 30.1193C141.702 30.9334 138.469 32.3236 133.811 34.1742C131.934 34.9198 127.011 38.5994 126.067 38.5588L125.868 38.2724C125.797 37.6807 126.112 37.0788 126.343 36.5156C126.141 35.5593 126.04 34.8865 125.607 34.0013C124.041 33.0727 120.81 33.0177 120.907 35.5216C121.071 37.7614 121.868 39.9939 122.314 42.1629C123.142 46.1845 123.981 50.0986 124.474 54.1801C124.886 57.5963 124.876 60.8813 124.744 64.3171C124.662 66.4362 125.01 68.6973 124.37 70.7367C124.236 71.1769 124.127 71.1242 123.725 71.316C123.235 70.6922 123.244 69.3263 123.213 68.5412L121.288 69.7996C121.212 70.6165 121.202 72.0965 120.443 72.5098C119.848 72.1005 120.001 67.2821 119.998 66.4828C119.988 63.6369 120.333 60.5754 120.24 57.7476C120.07 52.6056 118.802 47.3275 117.565 42.3471C117.137 40.6261 116.065 39.1581 115.64 37.2861L115.622 37.2052C114.191 38.7007 113.882 39.1804 113.026 41.0671C112.657 37.6155 111.346 34.8776 109.581 31.9712C110.499 31.3747 112.645 30.4845 113.725 30.0024C113.523 29.1172 113.242 27.8255 113.538 26.9535C113.892 25.9116 115.93 25.2464 116.931 25.6844C117.761 26.0477 118.009 26.7146 118.323 27.4997C118.896 27.7327 122.389 25.7719 123.46 25.3968C131.857 22.4567 138.011 20.8809 146.862 20.3806ZM181.31 34.4562C182.004 35.4195 184.826 37.7641 185.858 38.6578C186.194 39.1325 186.255 39.3858 186.723 39.6044C186.724 39.1332 186.508 38.9233 186.23 38.5273C184.885 36.6458 183.312 34.9371 181.549 33.4395C175.121 26.3486 161.694 22.1643 152.38 21.7153C141.27 21.1799 128.826 23.821 118.945 28.9249C118.911 28.9449 118.817 29.0881 118.788 29.1255C119.089 30.6749 119.65 32.3417 120.085 33.8764C122.194 31.7359 123.866 31.4845 126.532 33.0946C129.296 30.1798 139.188 26.9855 143.4 26.1083C145.606 25.6487 149.929 25.067 152.334 25.031C160.331 24.9112 168.391 27.3782 175.56 30.7774C176.939 31.4312 179.253 33.3986 181.31 34.4562ZM181.138 36.4797C181.539 36.835 181.549 36.9644 182.009 37.0318C181.98 36.5832 181.779 36.5221 181.404 36.1161C180.322 35.1244 178.703 34.1913 177.43 33.3965C169.74 28.5129 160.74 26.083 151.631 26.4306C144.035 26.7576 132.921 29.3008 126.938 34.1693C127.082 34.9707 127.185 35.5972 127.265 36.4161C128.403 36.0035 129.595 34.8149 130.606 34.4268C132.752 33.615 135.214 32.1603 137.292 31.3643C145.984 28.0357 157.013 28.0406 166.039 29.854C170.303 30.7107 177.463 34.1821 181.138 36.4797ZM122.049 61.5886C122.579 61.4917 123.101 61.5041 123.381 61.1658C124.059 57.2709 121.785 42.3646 120.082 38.9468C119.82 38.8587 119.811 38.8193 119.554 38.8574C119.055 38.9955 118.384 39.114 118.063 39.4848C117.91 40.9289 119.719 45.4771 120.076 47.2592C120.671 50.236 121.193 53.1625 121.563 56.1942C121.689 57.2273 121.522 61.0092 121.82 61.5101L122.049 61.5886ZM114.85 30.3777C115.283 31.4577 117.084 38.235 117.411 38.4605C118.565 38.0512 119.018 37.981 120.237 37.8036C119.245 35.9773 118.791 33.2951 118.163 31.2919C117.971 30.6784 118.045 29.5753 117.537 29.2517C116.635 29.6121 115.739 29.9875 114.85 30.3777ZM116.058 26.7243C115.594 26.8253 115.008 26.9132 114.758 27.3474C114.385 27.9959 114.099 28.7571 114.878 29.2034C115.111 29.1402 115.301 29.0964 115.526 29.0068C116.288 28.6853 117.513 28.2966 117.207 27.2552C116.804 26.8865 116.613 26.8094 116.058 26.7243ZM115.327 35.9204C115.075 35.0726 114.154 31.532 113.787 31.165C112.902 31.6927 112.172 32.0886 111.251 32.5525C112.412 34.3049 112.85 35.1935 113.47 37.1924L113.753 37.2949C114.291 37.0265 114.884 36.3625 115.327 35.9204Z" fill="var(--fill-0, #EFEFF1)"/>
<path id="Vector_3" d="M181.549 33.4395C183.312 34.9371 184.885 36.6458 186.23 38.5273L185.859 38.6578C184.826 37.7641 182.004 35.4195 181.31 34.4562C181.271 34.5365 181.533 33.4928 181.549 33.4395Z" fill="var(--fill-0, #EFEFF1)" fill-opacity="0.0313725"/>
<path id="Vector_4" d="M186.23 38.5273C186.508 38.9233 186.724 39.1332 186.723 39.6044C186.255 39.3858 186.194 39.1325 185.858 38.6578L186.23 38.5273Z" fill="var(--fill-0, #EFEFF1)" fill-opacity="0.545098"/>
<path id="Vector_5" d="M181.404 36.1161C181.779 36.5221 181.98 36.5832 182.009 37.0318C181.549 36.9644 181.539 36.835 181.138 36.4797L181.404 36.1161Z" fill="var(--fill-0, #EFEFF1)" fill-opacity="0.486275"/>
<path id="Vector_6" d="M148.932 39.1458C149.884 39.1785 151.765 40.5143 152.534 41.1295C154.112 42.4406 155.323 44.2496 156.199 46.0906C157.705 49.2565 155.745 49.2591 153.373 49.3958C153.343 50.2356 153.361 51.2968 153.099 52.0733C152.52 52.0063 151.506 51.4394 150.396 51.5421C149.483 51.6265 149.676 51.1685 148.45 51.7049C148.159 50.7271 148.064 50.5409 147.475 49.7063C145.814 48.9871 145.514 47.9887 145.669 46.1597C145.907 43.3459 146.738 41.0439 148.932 39.1458ZM153.963 47.6886C155.368 46.4757 154.924 44.9672 152.974 44.764C152.66 44.7314 152.061 44.8168 151.724 44.8469C151.227 45.1889 151.131 45.236 150.947 45.8209C151.088 47.3255 152.66 47.7222 153.963 47.6886ZM148.288 47.4816C150.307 45.8805 149.424 44.91 147.224 44.8136C146.194 45.7326 146.226 47.4665 147.829 47.6732L148.288 47.4816ZM150.561 49.6115C150.726 49.4947 150.951 49.4091 150.951 49.2082C150.95 48.6819 150.249 47.3445 149.819 47.1108C149.549 47.6996 148.994 48.6647 149.105 49.2456C149.527 49.6561 149.541 49.6276 150.236 49.6182C150.345 49.6168 150.453 49.6145 150.561 49.6115Z" fill="var(--fill-0, #EFEFF1)"/>
<path id="Vector_7" d="M156.171 84.4419C156.358 84.5463 156.626 84.7299 156.666 84.9406C156.967 86.5453 156.999 88.9093 157.085 90.5145L158.074 112.585C158.205 115.662 158.073 118.505 158.476 121.594C158.639 122.84 159.515 130.809 159.309 131.353C156.661 130.187 155.263 85.4904 156.171 84.4419Z" fill="var(--fill-0, #EFEFF1)" fill-opacity="0.984314"/>
<path id="Vector_8" d="M150.697 97.1526C151.104 97.2801 151.162 97.2954 151.399 97.6445C151.587 98.5209 151.417 106.023 151.397 107.434L151.2 120.71C151.114 124.686 150.891 134.317 148.781 137.624C148.358 137.612 148.293 137.609 147.899 137.458C147.807 136.906 149.572 131.675 149.64 130.191C149.902 123.239 150.081 116.284 150.178 109.327C150.203 107.262 150.018 98.4295 150.697 97.1526Z" fill="var(--fill-0, #EFEFF1)" fill-opacity="0.988235"/>
<path id="Vector_9" d="M160.263 110.584C160.485 110.635 161.006 110.711 161.08 110.85C161.458 111.557 161.715 113.541 161.894 114.354C162.51 117.146 162.988 120.405 163.734 123.123C164.882 126.832 166.544 130.399 168.475 133.762C169.163 134.961 171.192 136.228 170.937 137.508C170.182 137.482 169.32 136.809 168.922 136.247C167.38 134.056 164.79 130.037 164.045 127.589C162.885 123.789 159.916 114.371 160.263 110.584Z" fill="var(--fill-0, #EFEFF1)"/>
<path id="Vector_10" d="M145.307 107.719C145.436 107.785 145.719 107.881 145.783 108.005C146.297 108.985 145.201 122.362 144.892 124.367C144.553 126.573 144.087 128.712 143.359 130.825C142.951 132.01 142.604 133.163 141.409 133.746C141.208 133.683 141.26 133.672 141.077 133.483C141.089 132.601 142.163 130.187 142.434 129.133C144.231 122.151 144.575 114.897 145.307 107.719Z" fill="var(--fill-0, #EFEFF1)" fill-opacity="0.984314"/>
<path id="Vector_11" d="M168.693 122.298C170.101 122.805 172.361 135.182 175.061 136.75C175.663 137.1 179.132 140.647 179.158 141.389C177.059 141.629 172.857 136.073 172.087 134.141C171.115 131.701 167.878 124.552 168.693 122.298Z" fill="var(--fill-0, #EFEFF1)"/>
<path id="Vector_12" d="M155.847 49.8194C156.059 49.8885 156.103 49.9872 156.248 50.1632C156.313 51.4675 156.037 52.216 155.602 53.4134C153.678 54.9888 150.46 57.2348 148.364 54.7691C148.294 54.1771 148.173 53.1321 148.387 52.6055C148.741 52.4735 149.233 52.7301 149.698 52.9665C150.369 53.3077 151.886 52.6469 152.704 52.37C153.131 52.5255 153.245 52.648 153.594 52.9252C154.827 52.6941 154.152 50.9975 155.712 49.9119L155.847 49.8194Z" fill="var(--fill-0, #EFEFF1)"/>
<path id="Vector_13" d="M158.65 72.3409C159.315 72.5257 159.209 72.3956 159.627 72.8481C159.833 74.8769 160.524 88.7554 160.126 90.1824C159.608 90.1568 159.785 90.2286 159.407 89.9576C158.967 88.6808 158.411 74.004 158.65 72.3409Z" fill="var(--fill-0, #EFEFF1)" fill-opacity="0.980392"/>
<path id="Vector_14" d="M157.798 61.532C158.368 61.5859 158.197 61.4875 158.499 61.8439C158.61 63.8458 150.202 69.63 147.056 64.2606C146.681 63.6787 146.553 63.5294 146.498 62.8467L146.673 62.6474C147.545 62.8402 149.736 65.6475 151.012 65.64C153.634 65.6243 156.006 63.159 157.798 61.532Z" fill="var(--fill-0, #EFEFF1)"/>
<path id="Vector_15" d="M154.053 127.676C154.995 128.058 154.818 128.991 154.939 129.853C155.064 130.734 155.016 131.793 155.236 132.647C155.72 134.524 156.415 136.414 157.309 138.136C157.309 138.136 157.278 138.753 157.275 138.798C156.325 138.495 156.322 138.444 155.728 137.597C154.44 135.757 153.592 129.642 154.053 127.676Z" fill="var(--fill-0, #EFEFF1)" fill-opacity="0.988235"/>
<path id="Vector_16" d="M171.896 84.5572C172.06 84.6261 172.278 84.8003 172.318 84.9461C172.775 86.6159 173.915 93.7391 173.519 95.0344C173.274 95.0052 172.682 94.8859 172.656 94.6177C172.504 93.0004 171.375 85.6467 171.896 84.5572Z" fill="var(--fill-0, #EFEFF1)" fill-opacity="0.980392"/>
<path id="Vector_17" d="M141.389 139.595C142.107 139.553 143.972 140.111 143.741 141.048C143.108 141.651 141.77 142.004 140.879 142.312C140.397 142.598 139.995 142.934 139.478 142.862C139.108 142.546 139.088 142.357 138.954 141.902C139.21 140.616 140.116 140.856 141.389 139.595Z" fill="var(--fill-0, #EFEFF1)"/>
<path id="Vector_18" d="M165.571 98.2885C166.098 98.4617 165.957 98.3318 166.164 98.7346C166.086 99.644 164.821 101.501 164.623 102.573C164.46 103.469 164.372 104.224 163.923 105.022L163.637 104.856C162.691 102.805 163.9 99.6985 165.571 98.2885Z" fill="var(--fill-0, #EFEDEE)" fill-opacity="0.984314"/>
<path id="Vector_19" d="M170.591 99.9925L171.051 100.198C172.583 102.273 171.439 105.8 170.23 107.786C169.866 107.863 169.85 107.868 169.482 107.813C169.355 107.366 170.998 104.122 170.941 103.593C170.777 102.083 170.59 101.641 170.591 99.9925Z" fill="var(--fill-0, #EFEFF1)" fill-opacity="0.976471"/>
<path id="Vector_20" d="M167.206 102.56L167.832 102.886C167.814 102.973 167.798 103.015 167.806 103.104C167.954 104.759 166.953 108.357 165.002 108.639L164.849 108.422C164.983 107.614 165.991 105.995 166.336 105.132C166.689 104.246 166.943 103.483 167.206 102.56Z" fill="var(--fill-0, #EFEFF1)" fill-opacity="0.988235"/>
<path id="Vector_21" d="M168.786 103.567C169.19 103.588 169.393 103.56 169.741 103.769C170.357 104.992 168.35 108.013 167.607 109.011L167.067 109.198L166.841 109.081C166.956 108.067 167.7 107.604 168.059 106.559C168.398 105.568 168.577 104.59 168.786 103.567Z" fill="var(--fill-0, #EFEFF1)" fill-opacity="0.972549"/>
<path id="Vector_22" d="M118.159 74.9788C119.141 74.9478 120.603 74.9563 121.316 75.686C121.531 76.1741 121.607 76.2851 121.461 76.8184C120.348 76.7974 118.658 77.1319 118.004 76.1766C117.956 75.5948 117.976 75.5225 118.159 74.9788Z" fill="var(--fill-0, #EFEFF1)"/>
<path id="Vector_23" d="M121.506 79.4242C122.079 79.4151 123.082 79.2631 123.391 79.7822C123.021 80.0776 121.544 80.5426 120.932 80.7898C120.136 81.0577 119.519 81.3826 118.935 80.6282C119.219 79.3677 120.435 79.4958 121.506 79.4242Z" fill="var(--fill-0, #EFEFF1)"/>
<path id="Vector_24" d="M118.303 77.6006C119.236 77.5233 121.293 77.2951 121.715 78.2619C121.417 78.697 121.483 78.5767 120.952 78.8248C120.025 79.0016 118.756 79.404 118.055 78.6525C118.028 77.9757 117.998 78.2161 118.303 77.6006Z" fill="var(--fill-0, #EFEFF1)"/>
<path id="Vector_25" d="M167.206 102.56C166.642 101.925 166.281 98.6312 167.752 98.7098C168.364 99.3832 168.042 102.004 167.832 102.886L167.206 102.56Z" fill="var(--fill-0, #EFEFF1)" fill-opacity="0.988235"/>
<path id="Vector_26" d="M168.815 99.1521C169.086 99.2484 169.461 99.3757 169.645 99.5893C170.068 100.078 170.136 102.52 170.054 103.053C169.268 103.009 169.267 103.149 168.866 102.718C168.513 101.615 168.659 100.298 168.815 99.1521Z" fill="var(--fill-0, #EFEFF1)"/>
<path id="Vector_27" d="M136.072 141.676C136.598 141.692 138.042 141.652 138.43 141.887C138.53 142.493 138.576 142.266 138.298 142.756C137.581 143.253 136.214 143.601 135.431 143.164C135.303 142.793 135.303 142.956 135.477 142.551C135.728 141.932 135.58 142.077 136.072 141.676Z" fill="var(--fill-0, #EFEFF1)"/>
<path id="Vector_28" d="M118.75 72.8654C119.531 73.0406 121.717 73.2986 121.709 74.2027L121.339 74.5473C120.37 74.5002 118.729 74.7101 118.239 73.8983C118.259 73.3871 118.428 73.2497 118.75 72.8654Z" fill="var(--fill-0, #EFEFF1)"/>
<path id="Vector_29" d="M126.862 78.9665C127.743 79.0414 129.099 79.1433 129.744 79.7351C129.913 80.2545 129.927 80.0362 129.674 80.5508C128.78 80.6223 127.519 80.6989 126.83 80.1245C126.615 79.4918 126.672 79.6902 126.862 78.9665Z" fill="var(--fill-0, #EFEFF1)"/>
<path id="Vector_30" d="M125.557 73.8604C126.041 74.3188 126.58 75.0572 126.606 75.7425C126.407 76.2288 126.549 76.0696 126.047 76.3235C124.678 76.2358 124.241 74.9176 124.94 74.0883C125.161 74.0344 125.346 73.9468 125.557 73.8604Z" fill="var(--fill-0, #EFEFF1)"/>
<path id="Vector_31" d="M127.391 75.8631C128.386 76.2045 129.049 77.4597 128.974 78.4862C127.064 78.3046 126.453 77.7361 127.391 75.8631Z" fill="var(--fill-0, #EFEFF1)" fill-opacity="0.988235"/>
<path id="Vector_32" d="M125.014 77.1535C126.775 77.8369 126.363 78.5613 125.64 79.922L125.207 80.1274L124.948 79.9764C124.733 79.3469 124.954 77.9269 125.014 77.1535Z" fill="var(--fill-0, #EFEFF1)"/>
<path id="Vector_33" d="M124.94 74.0883C124.677 73.5505 123.762 73.5643 123.429 72.6532L123.558 72.3807C124.873 71.7249 125.483 72.6452 125.557 73.8604C125.346 73.9468 125.161 74.0344 124.94 74.0883Z" fill="var(--fill-0, #EFEFF1)"/>
<path id="Vector_34" d="M135.477 142.551L135.222 142.209C134.48 142.701 133.997 143.131 133.058 142.959C132.793 142.607 132.803 142.734 132.839 142.395C133.462 141.891 135.315 141.343 136.072 141.676C135.58 142.077 135.728 141.932 135.477 142.551Z" fill="var(--fill-0, #EFEFF1)" fill-opacity="0.960784"/>
<path id="Vector_35" d="M139.845 139.154C140.131 139.142 140.245 139.183 140.517 139.246L140.523 139.521C140.013 140.072 139.158 140.481 138.485 140.855C137.956 140.754 138.064 140.849 137.705 140.539L137.809 140.258C138.419 139.759 139.128 139.48 139.845 139.154Z" fill="var(--fill-0, #EFEFF1)" fill-opacity="0.964706"/>
<path id="Vector_36" d="M122.908 73.0403C123.398 73.5424 123.669 73.6264 123.717 74.1725C123.441 74.6127 123.103 74.9731 122.761 75.3642L122.236 75.6851L122.072 75.5881C121.99 74.9388 122.577 73.6014 122.908 73.0403Z" fill="var(--fill-0, #EFEFF1)" fill-opacity="0.984314"/>
<path id="Vector_37" d="M165.771 141.372C166.002 141.381 166.177 141.452 166.398 141.521C166.58 142.132 166.219 142.851 165.999 143.523C165.396 143.537 165.282 143.561 164.963 143.098C164.975 142.519 165.452 141.887 165.771 141.372Z" fill="var(--fill-0, #EFEFF1)" fill-opacity="0.972549"/>
<path id="Vector_38" d="M126.657 86.2288C126.476 85.3388 126.178 82.0042 127.04 81.4979C127.33 82.0349 127.287 82.5156 127.3 83.1273L127.013 82.988C126.682 83.524 126.775 85.4328 126.657 86.2288Z" fill="var(--fill-0, #EFEFF1)" fill-opacity="0.92549"/>
<path id="Vector_39" d="M161.458 141.642C162.154 140.924 163.915 140.67 164.639 141.338C163.99 141.798 163.552 141.189 162.22 141.9L161.458 141.642Z" fill="var(--fill-0, #8B8E93)"/>
<path id="Vector_40" d="M144.13 141.016C144.983 141.013 146.096 141.51 146.295 142.413C145.151 142.618 144.416 142.087 144.13 141.016Z" fill="var(--fill-0, #EFEFF1)" fill-opacity="0.960784"/>
<path id="Vector_41" d="M123.54 75.817C123.921 75.9228 123.786 75.8601 124.079 76.1622L123.95 76.4951C123.383 76.9643 123.129 76.9598 122.385 77.0649L122.223 77.1426L122.212 76.8478C122.587 76.3814 123.036 76.1395 123.54 75.817Z" fill="var(--fill-0, #EFEFF1)" fill-opacity="0.94902"/>
<path id="Vector_42" d="M164.011 81.1294C164.147 80.6722 164.165 80.475 164.495 80.1263C164.883 80.2195 164.752 80.1752 165.035 80.6357C164.843 81.1598 164.628 81.9101 164.263 82.2908C164.001 82.0036 164.017 81.5606 164.011 81.1294Z" fill="var(--fill-0, #EFEFF1)" fill-opacity="0.0117647"/>
</g>
</svg>
