<svg xmlns="http://www.w3.org/2000/svg" width="146" height="163" viewBox="0 0 145.941 162.808" fill="none">
  <g id="decorative-group">
    <circle cx="91.7339" cy="59.4521" r="30.3986" fill="#000AFF"/>
    <path d="M46.5391 48.2704C71.1485 48.2704 91.0792 68.102 91.0792 92.5409C91.0791 116.98 71.1485 136.811 46.5391 136.811C21.9299 136.811 2.0001 116.98 2.00005 92.5409C2.00005 68.1021 21.9299 48.2706 46.5391 48.2704Z" stroke="#A5B2FF" stroke-width="4" fill="none"/>
    <path d="M59.3766 0.293355C59.4251 -0.0977851 60.0173 -0.0977851 60.0658 0.293355L60.472 3.57467C60.9966 7.81173 64.4825 11.1523 68.9037 11.6551L72.3277 12.0444C72.7359 12.0909 72.7359 12.6584 72.3277 12.7049L68.9037 13.0942C64.4825 13.597 60.9966 16.9376 60.472 21.1746L60.0658 24.4559C60.0173 24.8471 59.4251 24.8471 59.3766 24.4559L58.9703 21.1746C58.4457 16.9376 54.9599 13.597 50.5386 13.0942L47.1146 12.7049C46.7065 12.6584 46.7065 12.0909 47.1146 12.0444L50.5386 11.6551C54.9599 11.1523 58.4457 7.81173 58.9703 3.57467L59.3766 0.293355Z" fill="#FFC7AA"/>
    <path d="M121.912 116.555C122 115.815 123.073 115.815 123.161 116.555L123.898 122.761C124.848 130.774 131.167 137.092 139.18 138.043L145.386 138.78C146.126 138.868 146.126 139.941 145.386 140.029L139.18 140.765C131.167 141.716 124.848 148.034 123.898 156.048L123.161 162.254C123.073 162.993 122 162.993 121.912 162.254L121.176 156.048C120.225 148.034 113.907 141.716 105.893 140.765L99.6873 140.029C98.9475 139.941 98.9475 138.868 99.6873 138.78L105.893 138.043C113.907 137.092 120.225 130.774 121.176 122.761L121.912 116.555Z" fill="#BE4200"/>
  </g>
</svg>