<svg xmlns="http://www.w3.org/2000/svg" width="1920" height="80" viewBox="0 0 1920 80" fill="none" preserveAspectRatio="none" aria-hidden="true" role="presentation">
  <!-- Pattern (b): Section wave divider using layered waves for depth -->
  <!-- Usage: placed between major content sections -->
  <!-- Back wave: sky at 20% opacity, front wave: brand blue at 10% opacity, offset vertically -->
  <!-- Colors: --af-ai-kame (#C8E0E4), --af-ultra (#000AFF) -->

  <!-- Back layer: sky wave at 20% -->
  <g opacity="1" transform="translate(0, 0)">
    <path d="M0 12C8.1 12 15.17 13.86 21.6 17.68C27.05 20.92 31.18 25.01 35.18 28.96L35.19 28.98C42.38 36.09 48.05 41.71 60 41.71C71.95 41.71 77.63 36.09 84.81 28.97L84.82 28.96C88.82 25.01 92.95 20.92 98.4 17.68C104.83 13.86 111.9 12 120 12C128.1 12 135.17 13.86 141.6 17.68C147.05 20.92 151.18 25.01 155.18 28.96L155.19 28.98C162.38 36.09 168.05 41.71 180 41.71C191.95 41.71 197.63 36.09 204.81 28.97L204.82 28.96C208.82 25.01 212.95 20.92 218.4 17.68C224.83 13.86 231.9 12 240 12C248.1 12 255.17 13.86 261.6 17.68C267.05 20.92 271.18 25.01 275.18 28.96L275.19 28.98C282.38 36.09 288.05 41.71 300 41.71C311.95 41.71 317.63 36.09 324.81 28.97L324.82 28.96C328.82 25.01 332.95 20.92 338.4 17.68C344.83 13.86 351.9 12 360 12C368.1 12 375.17 13.86 381.6 17.68C387.05 20.92 391.18 25.01 395.18 28.96L395.19 28.98C402.38 36.09 408.05 41.71 420 41.71C431.95 41.71 437.63 36.09 444.81 28.97L444.82 28.96C448.82 25.01 452.95 20.92 458.4 17.68C464.83 13.86 471.9 12 480 12C488.1 12 495.17 13.86 501.6 17.68C507.05 20.92 511.18 25.01 515.18 28.96L515.19 28.98C522.38 36.09 528.05 41.71 540 41.71C551.95 41.71 557.63 36.09 564.81 28.97L564.82 28.96C568.82 25.01 572.95 20.92 578.4 17.68C584.83 13.86 591.9 12 600 12C608.1 12 615.17 13.86 621.6 17.68C627.05 20.92 631.18 25.01 635.18 28.96L635.19 28.98C642.38 36.09 648.05 41.71 660 41.71C671.95 41.71 677.63 36.09 684.81 28.97L684.82 28.96C688.82 25.01 692.95 20.92 698.4 17.68C704.83 13.86 711.9 12 720 12V80H0V12Z" fill="rgba(200, 224, 228, 0.2)"/>
  </g>

  <!-- Front layer: brand blue wave at 10%, shifted up -->
  <g opacity="1" transform="translate(60, 0)">
    <path d="M0 0C8.1 0 15.17 1.86 21.6 5.68C27.05 8.92 31.18 13.01 35.18 16.96L35.19 16.98C42.38 24.09 48.05 29.71 60 29.71C71.95 29.71 77.63 24.09 84.81 16.97L84.82 16.96C88.82 13.01 92.95 8.92 98.4 5.68C104.83 1.86 111.9 0 120 0C128.1 0 135.17 1.86 141.6 5.68C147.05 8.92 151.18 13.01 155.18 16.96L155.19 16.98C162.38 24.09 168.05 29.71 180 29.71C191.95 29.71 197.63 24.09 204.81 16.97L204.82 16.96C208.82 13.01 212.95 8.92 218.4 5.68C224.83 1.86 231.9 0 240 0C248.1 0 255.17 1.86 261.6 5.68C267.05 8.92 271.18 13.01 275.18 16.96L275.19 16.98C282.38 24.09 288.05 29.71 300 29.71C311.95 29.71 317.63 24.09 324.81 16.97L324.82 16.96C328.82 13.01 332.95 8.92 338.4 5.68C344.83 1.86 351.9 0 360 0C368.1 0 375.17 1.86 381.6 5.68C387.05 8.92 391.18 13.01 395.18 16.96L395.19 16.98C402.38 24.09 408.05 29.71 420 29.71C431.95 29.71 437.63 24.09 444.81 16.97L444.82 16.96C448.82 13.01 452.95 8.92 458.4 5.68C464.83 1.86 471.9 0 480 0C488.1 0 495.17 1.86 501.6 5.68C507.05 8.92 511.18 13.01 515.18 16.96L515.19 16.98C522.38 24.09 528.05 29.71 540 29.71C551.95 29.71 557.63 24.09 564.81 16.97L564.82 16.96C568.82 13.01 572.95 8.92 578.4 5.68C584.83 1.86 591.9 0 600 0V68H0V0Z" fill="rgba(0, 10, 255, 0.1)"/>
  </g>
</svg>