<svg xmlns="http://www.w3.org/2000/svg" width="292" height="320" viewBox="0 0 292 320" fill="none" aria-hidden="true" role="presentation">
  <!-- Pattern (c): Decorative constellation for empty states -->
  <!-- Usage: centered in empty state panels, above message text -->
  <!-- Combines circle, ring, and stars in a composed arrangement -->
  <!-- Colors: --af-ultra (#000AFF), --af-terra (#BE4200), --af-peach-soft (#FFC7AA), --af-ai-kame (#C8E0E4), --af-ultra-wash (#A5B2FF) -->

  <!-- Central circle — grounding element -->
  <g opacity="0.35">
    <circle cx="146" cy="160" r="44" fill="#C8E0E4"/>
  </g>

  <!-- Large ring — orbital boundary -->
  <g opacity="0.25">
    <circle cx="146" cy="160" r="90" stroke="#A5B2FF" stroke-width="3" fill="none"/>
  </g>

  <!-- Outer ring — atmospheric edge -->
  <g opacity="0.12">
    <circle cx="146" cy="160" r="130" stroke="#C8E0E4" stroke-width="2" fill="none"/>
  </g>

  <!-- Top-left star — brand blue, small -->
  <g opacity="0.5" transform="translate(42, 50) rotate(-5)">
    <path d="M14.47 0.34C14.53 -0.11 15.21 -0.11 15.27 0.34L15.73 4.12C16.34 9 20.35 12.84 25.44 13.42L29.39 13.87C29.86 13.92 29.86 14.58 29.39 14.63L25.44 15.08C20.35 15.66 16.34 19.5 15.73 24.38L15.27 28.16C15.21 28.61 14.53 28.61 14.47 28.16L14 24.38C13.4 19.5 9.39 15.66 4.3 15.08L0.35 14.63C-0.12 14.58 -0.12 13.92 0.35 13.87L4.3 13.42C9.39 12.84 13.4 9 14 4.12L14.47 0.34Z" fill="#000AFF"/>
  </g>

  <!-- Top-right star — terracotta, larger -->
  <g opacity="0.45" transform="translate(210, 35) scale(1.6)">
    <path d="M14.47 0.34C14.53 -0.11 15.21 -0.11 15.27 0.34L15.73 4.12C16.34 9 20.35 12.84 25.44 13.42L29.39 13.87C29.86 13.92 29.86 14.58 29.39 14.63L25.44 15.08C20.35 15.66 16.34 19.5 15.73 24.38L15.27 28.16C15.21 28.61 14.53 28.61 14.47 28.16L14 24.38C13.4 19.5 9.39 15.66 4.3 15.08L0.35 14.63C-0.12 14.58 -0.12 13.92 0.35 13.87L4.3 13.42C9.39 12.84 13.4 9 14 4.12L14.47 0.34Z" fill="#BE4200"/>
  </g>

  <!-- Bottom star — apricot, medium -->
  <g opacity="0.4" transform="translate(110, 265) scale(1.3) rotate(10)">
    <path d="M14.47 0.34C14.53 -0.11 15.21 -0.11 15.27 0.34L15.73 4.12C16.34 9 20.35 12.84 25.44 13.42L29.39 13.87C29.86 13.92 29.86 14.58 29.39 14.63L25.44 15.08C20.35 15.66 16.34 19.5 15.73 24.38L15.27 28.16C15.21 28.61 14.53 28.61 14.47 28.16L14 24.38C13.4 19.5 9.39 15.66 4.3 15.08L0.35 14.63C-0.12 14.58 -0.12 13.92 0.35 13.87L4.3 13.42C9.39 12.84 13.4 9 14 4.12L14.47 0.34Z" fill="#FFC7AA"/>
  </g>

  <!-- Tiny accent star — bottom-left -->
  <g opacity="0.3" transform="translate(25, 230) scale(0.7)">
    <path d="M14.47 0.34C14.53 -0.11 15.21 -0.11 15.27 0.34L15.73 4.12C16.34 9 20.35 12.84 25.44 13.42L29.39 13.87C29.86 13.92 29.86 14.58 29.39 14.63L25.44 15.08C20.35 15.66 16.34 19.5 15.73 24.38L15.27 28.16C15.21 28.61 14.53 28.61 14.47 28.16L14 24.38C13.4 19.5 9.39 15.66 4.3 15.08L0.35 14.63C-0.12 14.58 -0.12 13.92 0.35 13.87L4.3 13.42C9.39 12.84 13.4 9 14 4.12L14.47 0.34Z" fill="#A5B2FF"/>
  </g>

  <!-- Small apricot circle — floating accent -->
  <g opacity="0.2">
    <circle cx="240" cy="240" r="12" fill="#FFC7AA"/>
  </g>

  <!-- Connecting dots — constellation lines suggested via tiny circles -->
  <g opacity="0.15">
    <circle cx="80" cy="95" r="3" fill="#000AFF"/>
    <circle cx="200" cy="85" r="2.5" fill="#BE4200"/>
    <circle cx="170" cy="250" r="3" fill="#FFC7AA"/>
    <circle cx="60" cy="200" r="2" fill="#A5B2FF"/>
  </g>
</svg>