<svg xmlns="http://www.w3.org/2000/svg" width="24" height="24" viewBox="0 0 29.7391 28.5" fill="none">
  <path d="M14.4727 0.337813C14.5286 -0.112604 15.2106 -0.112604 15.2664 0.337813L15.7342 4.1164C16.3383 8.99558 20.3524 12.8424 25.4437 13.4214L29.3866 13.8697C29.8566 13.9232 29.8566 14.5768 29.3866 14.6303L25.4437 15.0786C20.3524 15.6576 16.3383 19.5044 15.7342 24.3836L15.2664 28.1621C15.2106 28.6126 14.5286 28.6126 14.4727 28.1621L14.0049 24.3836C13.4008 19.5044 9.38669 15.6576 4.29538 15.0786L0.3525 14.6303C-0.1175 14.5768 -0.1175 13.9232 0.3525 13.8697L4.29538 13.4214C9.38669 12.8424 13.4008 8.99558 14.0049 4.1164L14.4727 0.337813Z" fill="#BE4200"/>
</svg>